<svg width="317" height="277" viewBox="0 0 317 277" fill="none" xmlns="http://www.w3.org/2000/svg">
<g id="savings" clip-path="url(#clip0)">
<path id="Vector" d="M59.5653 44.1048L64.6968 42.4862L66.0448 44.8837L66.6676 50.6134L65.5195 51.2935L59.5653 44.1048Z" fill="black"/>
<path id="Vector_2" d="M84.4977 55.3894L78.6364 58.1592L84.7952 65.5835L86.2314 64.7286L87.1239 58.8355L84.4977 55.3894Z" fill="black"/>
<g id="Group" opacity="0.05">
<path id="Vector_3" opacity="0.05" d="M96.7919 20.8024C95.6113 22.2614 94.5097 23.842 94.1704 24.9514L95.1 24.4271C94.9838 23.6026 95.7507 22.2348 96.7919 20.8024Z" fill="black"/>
<path id="Vector_4" opacity="0.05" d="M102.077 40.6586L102.723 29.5526C88.3138 37.0263 67.23 43.8464 67.23 43.8464L66.2121 45.1649C66.2121 45.1649 87.3191 38.3447 101.705 30.8711L101.101 41.3311L102.077 40.6586Z" fill="black"/>
</g>
<g id="Group_2" opacity="0.5">
<path id="Vector_5" opacity="0.5" d="M64.3575 51.833L65.5381 51.1301L64.9013 45.2295L63.5116 42.7636L58.2267 44.4316L64.3575 51.833Z" fill="url(#paint0_linear)"/>
<path id="Vector_6" opacity="0.5" d="M144.825 0.716085C141.613 -0.545354 139.21 0.0473705 137.528 1.09604C136.026 2.02067 134.853 3.25623 134.13 4.67518L133.665 5.68205L131.49 6.97389L130.783 5.73905C130.783 5.73905 123.082 -5.44673 100.362 16.3967L100.259 16.3283C100.259 16.3283 98.3258 18.2623 96.5641 20.4318L96.3131 20.7433L96.2016 20.8839L96.0436 21.0853L95.9274 21.2373L95.7507 21.4766L95.5973 21.6818L95.4347 21.906L95.3185 22.0694L95.1976 22.2403L95.0814 22.4113L94.9605 22.5937L94.7839 22.8673L94.6863 23.0192L94.5794 23.1978L94.5004 23.3346L94.3981 23.5132L94.3331 23.631C94.2773 23.7374 94.2246 23.8412 94.175 23.9425L94.1192 24.0603L94.0449 24.2275L93.9984 24.3415C93.9643 24.4276 93.9333 24.5125 93.9054 24.5961C93.9054 24.6416 93.8729 24.6834 93.8636 24.7252C93.7725 24.992 93.7379 25.2696 93.7613 25.5459L63.5116 42.7539L65.064 45.5124C65.064 45.5124 86.8031 38.4909 101.621 30.7893L100.998 41.5609L100.961 42.2258C100.961 42.2258 87.426 51.3864 83.9027 56.0522L77.8602 58.9057L84.2049 66.5503L85.683 65.6726L86.6126 59.5934L111.447 43.3657C111.447 43.3657 116.156 36.3328 116.24 30.4473L117.257 33.6579C117.257 33.6579 119.423 38.6315 120.953 38.829C122.482 39.0266 122.487 34.9725 121.417 33.7681C120.348 32.5636 120.85 24.5163 120.85 24.5163L121.129 22.8787L125.015 20.5686L125.159 20.4584L125.364 21.469L126.145 21.526V21.5716L126.182 21.8642L126.684 29.5354L129.435 38.2135C129.435 38.2135 131.601 43.1871 133.131 43.3847C134.66 43.5822 134.665 39.5281 133.595 38.3237C132.526 37.1193 133.033 29.0757 133.033 29.0757L134.167 22.3771V22.2479L134.19 22.0998L136.426 22.2593C136.426 22.2593 138.75 15.728 134.86 12.8821L134.153 11.6473L135.603 10.7886L135.896 10.6176C137.125 11.6004 138.776 12.1508 140.496 12.1508C142.215 12.1508 143.866 11.6004 145.095 10.6176C146.182 10.7003 147.27 10.4632 148.163 9.94891L148.725 9.61835C149.33 9.30429 149.877 8.92037 150.347 8.4785C150.742 7.87817 149.799 2.66524 144.825 0.716085Z" fill="url(#paint1_linear)"/>
</g>
<path id="Vector_7" d="M100.399 16.8205C100.399 16.8205 93.7846 23.4316 94.096 25.7493L64.7015 42.4862L66.2074 45.1649C66.2074 45.1649 87.3144 38.3447 101.7 30.8711L101.059 41.9923C101.059 41.9923 87.9187 50.8717 84.5023 55.4046L87.1285 58.8507L111.243 43.0941C111.243 43.0941 118.396 32.4099 114.961 26.5814L100.399 16.8205Z" fill="#535461"/>
<g id="Group 1">
<path id="Vector_8" d="M312.253 178.775C291.081 248.184 205.073 290.431 120.143 273.121C35.2128 255.81 -16.4368 185.5 4.74917 116.083C25.9352 46.6657 111.92 4.41503 196.822 21.7218C281.724 39.0286 333.425 109.346 312.253 178.775Z" fill="#F7931A"/>
<path id="Vector_9" d="M228.389 128.963C231.545 111.721 215.486 102.454 193.528 96.2874L200.654 72.9317L183.26 69.3868L176.321 92.1079C171.747 91.177 167.053 90.2993 162.377 89.4254L169.349 66.5334L151.993 62.996L144.862 86.344C141.079 85.6411 137.36 84.942 133.758 84.2087V84.1365L109.788 79.2275L105.14 94.4256C105.14 94.4256 118.043 96.8421 117.773 96.9941C124.815 98.4303 126.089 102.241 125.88 105.262L117.764 131.858C118.379 131.984 118.983 132.143 119.572 132.333C118.991 132.216 118.373 132.086 117.713 131.953L106.339 169.227C105.479 170.974 103.295 173.6 98.3676 172.604C98.5396 172.81 85.7248 170.025 85.7248 170.025L77.1584 186.317L99.7667 190.933C103.978 191.796 108.105 192.7 112.168 193.547L104.973 217.15L122.347 220.695L129.477 197.324C134.223 198.377 138.829 199.349 143.338 200.265L136.236 223.529L153.629 227.074L160.824 203.506C190.484 208.092 212.785 206.242 222.179 184.315C229.741 166.658 221.802 156.476 206.199 149.834C217.531 147.695 226.107 141.585 228.389 128.963ZM188.652 174.512C183.279 192.168 146.912 182.624 135.125 180.211L144.677 148.914C156.464 151.339 194.29 156.099 188.652 174.512ZM194.03 128.705C189.126 144.765 158.858 136.604 149.041 134.606L157.701 106.204C167.522 108.222 199.138 111.957 194.03 128.705Z" fill="white"/>
</g>
<path id="Vector_10" d="M125.261 17.9451L126.024 29.6476L128.692 38.0712C128.692 38.0712 130.793 42.9004 132.28 43.0903C133.768 43.2803 133.772 39.344 132.745 38.1738C131.718 37.0035 132.21 29.1955 132.21 29.1955L133.865 19.2598L125.261 17.9451Z" fill="#FDA57D"/>
<path id="Vector_11" d="M124.374 19.9057L124.759 21.8054L135.515 22.5653C135.515 22.5653 137.765 16.2239 133.991 13.4465L124.374 19.9057Z" fill="#F55F44"/>
<path id="Vector_12" d="M133.991 13.4731L130.016 6.53895C130.016 6.53895 122.51 -4.36187 100.338 17.0218L114.961 26.5662L124.425 20.9429L133.991 13.4731Z" fill="#F55F44"/>
<path id="Vector_13" d="M137.123 3.92938L140.659 7.90647L132.94 12.4925C132.401 12.8125 131.73 12.9444 131.072 12.8594C130.415 12.7744 129.825 12.4793 129.434 12.0391L128.852 11.3845C128.46 10.9443 128.299 10.3951 128.403 9.85761C128.507 9.32014 128.868 8.83845 129.407 8.51853L137.126 3.93246L137.123 3.92938Z" fill="#FDA57D"/>
<path id="Vector_14" opacity="0.05" d="M133.019 6.36799C132.717 7.25967 132.714 8.20158 133.012 9.09434C133.31 9.9871 133.897 10.7976 134.711 11.4403L138.36 9.27082L134.823 5.29272L133.019 6.36799Z" fill="black"/>
<path id="Vector_15" d="M143.2 11.7537C146.052 10.0598 146.687 6.80143 144.619 4.47594C142.551 2.15045 138.564 1.63843 135.713 3.33232C132.862 5.02621 132.227 8.28457 134.294 10.6101C136.362 12.9355 140.349 13.4476 143.2 11.7537Z" fill="#FDA57D"/>
<path id="Vector_16" opacity="0.05" d="M136.505 4.47201L132.819 6.48576L133.284 5.50548C133.284 5.50548 136.315 -0.953695 143.38 1.83135C148.209 3.73111 149.125 8.78447 148.758 9.36199C148.212 9.84668 147.587 10.2662 146.898 10.6082C145.992 11.1335 144.877 11.3616 143.775 11.2477C142.672 11.1337 141.662 10.6859 140.944 9.99271C139.708 8.78826 137.551 6.29578 137.946 4.86716C137.584 4.32763 137.109 4.10726 136.501 4.48721L136.505 4.47201Z" fill="black"/>
<path id="Vector_17" d="M136.793 4.30106L133.107 6.3148L133.572 5.33452C133.572 5.33452 136.603 -1.12465 143.668 1.66039C148.497 3.56015 149.413 8.61351 149.046 9.19103C148.501 9.67572 147.875 10.0953 147.187 10.4373C146.28 10.9625 145.165 11.1907 144.063 11.0767C142.96 10.9627 141.95 10.5149 141.232 9.82175C139.996 8.61731 137.839 6.12482 138.234 4.6962C137.872 4.15667 137.398 3.9363 136.789 4.31625L136.793 4.30106Z" fill="#5A2F32"/>
<path id="Vector_18" d="M138.038 4.63577C138.673 4.25816 139 3.74261 138.77 3.48425C138.54 3.2259 137.839 3.32257 137.205 3.70018C136.571 4.07779 136.243 4.59335 136.473 4.85171C136.703 5.11006 137.404 5.01338 138.038 4.63577Z" fill="#FDA57D"/>
<path id="Vector_19" opacity="0.05" d="M123.188 20.7872L124.876 19.6055L124.894 21.4711L124.527 20.753L123.188 20.7872Z" fill="black"/>
<path id="Vector_20" opacity="0.05" d="M125.503 21.9118L125.54 22.2006L133.298 22.6945L133.345 22.4248L125.503 21.9118Z" fill="black"/>
<path id="Vector_21" d="M113.446 13.5263L114.208 25.2288L116.876 33.6333C116.876 33.6333 118.977 38.4625 120.465 38.6525C121.952 38.8425 121.957 34.9062 120.929 33.7359C119.902 32.5657 120.386 24.7766 120.386 24.7766L122.068 14.8409L113.446 13.5263Z" fill="#FDA57D"/>
<path id="Vector_22" d="M176.73 102.88H175.921V103.541H176.73V102.88Z" fill="#CCCCCC"/>
<path id="Vector_23" d="M178.487 106.409H174.304V107.732H178.487V106.409Z" fill="#F7931A"/>
<path id="Vector_24" d="M176.735 102.99V103.32C176.586 103.32 176.465 103.244 176.465 103.153C176.465 103.062 176.586 102.99 176.735 102.99Z" fill="#E6E6E6"/>
<path id="Vector_25" opacity="0.05" d="M114.301 7.83461C114.301 7.83461 112.526 11.7519 113.279 13.0893L114.301 7.83461Z" fill="black"/>
<path id="Vector_26" opacity="0.05" d="M113.483 13.3249L113.479 14.0506L121.999 15.2209L122.101 14.6395L113.483 13.3249Z" fill="black"/>
<path id="Vector_27" d="M115.408 7.35587L113.446 13.5263L122.064 14.8409L124.341 7.05191L115.408 7.35587Z" fill="#F55F44"/>
<g id="Group_3" opacity="0.5">
<path id="Vector_28" opacity="0.5" d="M115.115 28.7281L116.811 33.9791C116.811 33.9791 119 38.9185 120.53 39.1046C122.059 39.2908 122.082 35.2785 120.995 34.0855C120.423 33.4586 120.302 30.9585 120.311 28.7281H115.115Z" fill="url(#paint2_linear)"/>
</g>
<path id="Vector_29" d="M115.249 28.7281L116.881 33.8689C116.881 33.8689 118.982 38.6981 120.469 38.8881C121.957 39.078 121.961 35.1417 120.934 33.9715C120.386 33.356 120.269 30.9091 120.279 28.7281H115.249Z" fill="#FDA57D"/>
<g id="Group_4" opacity="0.5">
<path id="Vector_30" opacity="0.5" d="M132.503 28.5116H125.717L125.81 29.9022L128.636 38.5727C128.636 38.5727 130.862 43.5425 132.433 43.74C134.005 43.9376 134.009 39.8835 132.898 38.6829C131.787 37.4822 132.345 29.4539 132.345 29.4539L132.503 28.5116Z" fill="url(#paint3_linear)"/>
</g>
<path id="Vector_31" d="M132.35 28.5116H125.935L126.024 29.8642L128.692 38.2877C128.692 38.2877 130.793 43.1169 132.28 43.3069C133.768 43.4969 133.772 39.5606 132.745 38.3903C131.718 37.2201 132.21 29.4121 132.21 29.4121L132.35 28.5116Z" fill="#FDA57D"/>
<g id="xyz" opacity="0.5">
<path id="Vector_32" opacity="0.5" d="M159.095 104.373L159.416 104.487L169.641 108.085L182.67 95.4515C182.67 95.4515 184.646 93.6467 182.294 92.4119C179.942 91.177 178.464 94.3724 178.464 94.3724L168.452 103.165L159.946 99.688L160.08 98.9584L152.327 95.2957C152.177 95.0649 152.013 94.8405 151.835 94.6232L151.765 94.418L151.379 94.1407C151.305 94.0761 151.23 94.0153 151.156 93.9621L152.439 92.8222C153.393 93.0957 154.41 93.1943 155.416 93.1111C156.422 93.028 157.394 92.765 158.262 92.3409C159.131 91.9168 159.874 91.3419 160.441 90.6569C161.007 89.9719 161.382 89.1935 161.54 88.3768C162.14 88.4703 162.757 88.4703 163.357 88.3768C164.147 88.241 164.884 87.9514 165.507 87.5327C166.13 87.114 166.621 86.5785 166.936 85.9717C166.91 86.0126 166.872 86.0479 166.826 86.075C166.78 86.102 166.727 86.12 166.671 86.1275C166.771 85.9853 166.86 85.8381 166.936 85.6867C166.671 86.2111 164.194 85.4892 163.822 85.3068C162.688 84.8128 162.102 84.0833 161.498 83.1867C160.341 81.4161 158.203 80.7626 155.795 80.6068C153.955 80.444 152.094 80.6352 150.361 81.1653C149.498 81.4352 148.712 81.8483 148.054 82.3786C147.395 82.909 146.879 83.545 146.536 84.2467C146.329 84.7283 146.234 85.2374 146.257 85.7475C146.218 86.2939 146.328 86.8405 146.581 87.3473C146.833 87.8542 147.221 88.3085 147.716 88.6769C147.801 88.7365 147.889 88.7923 147.981 88.8441C148.032 89.0075 148.088 89.1671 148.158 89.3267L147.819 89.6268L145.615 91.5798L145.504 91.5532L122.296 94.3914V94.4294C121.524 94.0115 118.029 92.5601 109.305 94.532C106.009 95.2919 100.52 95.1969 94.6259 94.7524C90.5077 90.5653 87.849 77.5254 87.849 77.5254L86.8078 73.836L73.2958 76.3893C73.2958 76.3893 79.5289 77.5292 80.5701 78.9426C82.1551 79.3757 83.1358 89.0531 83.5123 93.6201C75.42 92.5981 68.7918 91.4278 68.7918 91.4278L63.9438 90.0106L60.481 99.9425C60.481 99.9425 64.2924 96.523 67.7553 96.2532C67.7553 96.2532 85.0741 103.062 97.8935 101.645C102.886 101.094 107.71 102.819 111.749 103.347C115.285 103.829 118.857 104.113 122.44 104.198L122.482 107.317C122.482 107.317 136.747 106.816 146.117 104.384C146.829 105.957 147.4 107.093 147.6 107.177L149.301 106.497L158.858 116.113L177.557 109.867C177.557 109.867 180.346 109.016 178.952 107.029C177.557 105.041 174.448 107.314 174.448 107.314L160.592 111.284L154.744 104.658L154.517 104.399L155.744 103.909C155.744 103.909 155.706 103.761 155.632 103.506L158.858 105.611L159.095 104.373Z" fill="url(#paint4_linear)"/>
</g>
<g id="repairman">
<path id="Vector_33" d="M147.791 96.2532L143.51 93.0084L150.598 86.7278L154.879 89.9688L147.791 96.2532Z" fill="#FDA57D"/>
<path id="Vector_34" opacity="0.05" d="M150.259 87.0013L147.131 89.775C147.468 90.5544 148.016 91.2619 148.732 91.8452C149.449 92.4285 150.317 92.8728 151.272 93.1452L154.526 90.2461L150.259 87.0013Z" fill="black"/>
<path id="Vector_35" opacity="0.2" d="M176.628 102.967L188.248 101.067L188.713 105.627L176.628 103.347V102.967Z" fill="#535461"/>
<path id="Vector_36" d="M151.179 101.686L168.345 107.724L181.029 95.4363C181.029 95.4363 182.949 93.6809 180.662 92.4803C178.375 91.2796 176.944 94.38 176.944 94.38L167.183 102.921L154.656 97.8072L151.179 101.686Z" fill="#FDA57D"/>
<path id="Vector_37" d="M150.278 94.6992L159.039 98.8368L157.859 105.323L149.604 99.9425L150.278 94.6992Z" fill="#6C63FF"/>
<path id="Vector_38" d="M148.274 92.4917L144.904 91.6634L122.315 94.4256L122.482 106.964C122.482 106.964 149.943 105.999 152.973 100.205L150.952 94.4256L148.274 92.4917Z" fill="#6C63FF"/>
<path id="Vector_39" opacity="0.05" d="M149.868 100.11L157.859 105.323L158.198 103.115L150.278 96.9067L149.868 100.11Z" fill="black"/>
<path id="Vector_40" d="M153.815 93.1832C157.537 93.1832 160.554 90.7115 160.554 87.6625C160.554 84.6135 157.537 82.1418 153.815 82.1418C150.092 82.1418 147.075 84.6135 147.075 87.6625C147.075 90.7115 150.092 93.1832 153.815 93.1832Z" fill="#FDA57D"/>
<path id="Vector_41" d="M70.2606 91.5228L65.5381 90.1436L62.1683 99.8019C62.1683 99.8019 65.8867 96.4887 69.2427 96.2152L70.2606 91.5228Z" fill="#535461"/>
<path id="Vector_42" d="M81.7135 79.3833L88.7786 78.0041C88.7786 78.0041 92.1485 94.5624 97.2009 95.9416H84.7487C84.7487 95.9416 83.7354 79.9342 81.7135 79.3833Z" fill="#4D8AF0"/>
<path id="Vector_43" d="M88.7786 78.0041L87.77 74.4173L74.6298 76.9022C74.6298 76.9022 80.6723 78.0079 81.7042 79.3871L88.7786 78.0041Z" fill="#535461"/>
<path id="Vector_44" opacity="0.05" d="M154.888 81.2793C153.099 81.1209 151.289 81.307 149.604 81.8226C148.764 82.0853 148 82.4872 147.36 83.0032C146.72 83.5191 146.218 84.1379 145.885 84.8204C145.281 86.2035 145.671 87.9018 147.038 88.8517C147.362 89.1019 147.779 89.257 148.223 89.2925C148.939 89.3153 149.539 88.8859 150.082 88.5136C151.115 87.8169 152.252 87.2308 153.466 86.7696C154.498 86.3896 155.758 86.0857 156.72 86.5682C157.155 86.8325 157.55 87.1386 157.896 87.4801C158.453 87.9326 159.137 88.266 159.889 88.4509C160.641 88.6359 161.438 88.6666 162.207 88.5404C162.977 88.4142 163.698 88.135 164.304 87.7275C164.911 87.3199 165.385 86.7965 165.686 86.2034C165.426 86.7164 163.018 86.0097 162.655 85.8539C161.549 85.3752 160.982 84.6646 160.415 83.7946C159.309 82.0658 157.226 81.4313 154.888 81.2793Z" fill="black"/>
<path id="Vector_45" d="M152.118 87.2059C152.247 86.7608 152.131 86.3572 151.859 86.3044C151.587 86.2516 151.261 86.5696 151.132 87.0147C151.003 87.4598 151.119 87.8634 151.391 87.9162C151.663 87.969 151.989 87.651 152.118 87.2059Z" fill="#FDA57D"/>
<path id="Vector_46" opacity="0.05" d="M158.909 99.5474L158.082 104.08L158.388 104.225L159.039 99.5968L158.909 99.5474Z" fill="black"/>
<path id="Vector_47" d="M154.888 81.0057C153.099 80.8473 151.289 81.0334 149.604 81.549C148.764 81.8117 148 82.2137 147.36 82.7296C146.72 83.2456 146.218 83.8643 145.885 84.5469C145.281 85.9299 145.671 87.6283 147.038 88.5781C147.362 88.8284 147.779 88.9834 148.223 89.0189C148.939 89.0417 149.539 88.6123 150.082 88.24C151.115 87.5433 152.252 86.9572 153.466 86.496C154.498 86.1161 155.758 85.8121 156.72 86.2946C157.155 86.5589 157.55 86.8651 157.896 87.2065C158.453 87.659 159.137 87.9924 159.889 88.1774C160.641 88.3623 161.438 88.393 162.207 88.2668C162.977 88.1407 163.698 87.8614 164.304 87.4539C164.911 87.0463 165.385 86.5229 165.686 85.9299C165.426 86.4428 163.018 85.7361 162.655 85.5803C161.549 85.1016 160.982 84.3911 160.415 83.521C159.309 81.7922 157.226 81.1539 154.888 81.0057Z" fill="black"/>
<path id="Vector_48" opacity="0.05" d="M148.562 106.178L148.79 106.405L153.857 104.396L153.633 104.145L148.562 106.178Z" fill="black"/>
<path id="Vector_49" d="M132.252 87.936H128.208V110.289H132.252V87.936Z" fill="#E0E0E0"/>
<path id="Vector_50" d="M146.066 103.666L157.859 115.532L176.051 109.453C176.051 109.453 178.747 108.624 177.399 106.694C176.051 104.764 173.021 106.972 173.021 106.972L159.541 110.836L151.342 101.546L146.066 103.666Z" fill="#FDA57D"/>
<path id="Vector_51" d="M141.181 93.8709C141.181 93.8709 146.234 106.565 146.908 106.839L154.809 103.666C154.809 103.666 152.564 95.1057 150.064 93.7873C147.563 92.4689 141.521 92.7652 141.181 93.8709Z" fill="#6C63FF"/>
<path id="Vector_52" d="M160.464 89.6723L159.586 89.195L158.112 91.0084L158.99 91.4856L160.464 89.6723Z" fill="black"/>
<path id="Vector_53" d="M175.396 103.875H177.394C177.538 103.875 177.68 103.898 177.813 103.943C177.945 103.988 178.065 104.054 178.167 104.137C178.268 104.219 178.349 104.318 178.404 104.426C178.459 104.535 178.487 104.651 178.487 104.768V110.273H174.304V104.768C174.304 104.651 174.332 104.535 174.387 104.426C174.442 104.318 174.522 104.219 174.623 104.137C174.725 104.054 174.845 103.988 174.978 103.943C175.11 103.898 175.252 103.875 175.396 103.875Z" fill="#535461"/>
<path id="Vector_54" d="M159.233 89.5871L152.719 86.0465L152.425 86.4072L158.94 89.9478L159.233 89.5871Z" fill="black"/>
<path id="Vector_55" d="M122.482 94.5586C122.482 94.5586 119.451 92.3511 109.681 94.5586C99.9108 96.7661 70.2606 91.519 70.2606 91.519L69.2566 96.2152C69.2566 96.2152 86.1013 102.838 98.5675 101.459C103.42 100.923 108.115 102.598 112.047 103.115C115.498 103.581 118.985 103.852 122.482 103.924V94.5586Z" fill="#4D8AF0"/>
</g>
<path id="Vector_56" d="M130.904 90.4209H129.556V36.445L130.886 36.502L130.904 90.4209Z" fill="#E0E0E0"/>
<path id="Vector_57" opacity="0.05" d="M142.622 97.431C142.622 97.431 142.357 102.287 144.044 103.13L142.622 97.431Z" fill="black"/>
<path id="Vector_58" d="M129.566 36.502L123.486 29.1575L124.123 27.6035L130.886 36.502H129.566Z" fill="#E0E0E0"/>
<g id="Group_5" opacity="0.7">
<path id="Vector_59" opacity="0.7" d="M280.866 233.252H263.984V243.45H280.866V233.252Z" fill="url(#paint5_linear)"/>
<g id="Group_6" opacity="0.1">
<path id="Vector_60" opacity="0.1" d="M263.984 235.954C263.984 235.954 270.282 236.554 272.425 236.554C274.568 236.554 280.866 235.954 280.866 235.954V233.404H263.984V235.954Z" fill="url(#paint6_linear)"/>
</g>
<path id="Vector_61" opacity="0.7" d="M280.866 235.802C280.866 235.802 274.568 236.402 272.425 236.402C270.282 236.402 263.984 235.802 263.984 235.802V225.752C263.984 223.922 264.873 222.167 266.456 220.873C268.039 219.579 270.186 218.852 272.425 218.852C274.663 218.852 276.81 219.579 278.393 220.873C279.976 222.167 280.866 223.922 280.866 225.752V235.802Z" fill="url(#paint7_linear)"/>
<path id="Vector_62" opacity="0.7" d="M272.425 220.805C271.89 220.805 271.377 220.631 270.998 220.322C270.62 220.013 270.407 219.594 270.407 219.156V215.406H274.442V219.156C274.442 219.594 274.23 220.013 273.851 220.322C273.473 220.631 272.96 220.805 272.425 220.805Z" fill="url(#paint8_linear)"/>
<path id="Vector_63" opacity="0.7" d="M270.04 239.852H263.984V273.451H270.04V239.852Z" fill="url(#paint9_linear)"/>
<path id="Vector_64" opacity="0.7" d="M280.866 239.852H274.809V273.451H280.866V239.852Z" fill="url(#paint10_linear)"/>
<g id="Group_7" opacity="0.1">
<path id="Vector_65" opacity="0.1" d="M270.407 217.91C271.733 218.176 273.117 218.176 274.442 217.91V215.554H270.407V217.91Z" fill="url(#paint11_linear)"/>
</g>
<path id="Vector_66" opacity="0.7" d="M272.425 216.603C277.289 216.603 281.233 213.379 281.233 209.403C281.233 205.426 277.289 202.203 272.425 202.203C267.56 202.203 263.617 205.426 263.617 209.403C263.617 213.379 267.56 216.603 272.425 216.603Z" fill="url(#paint12_linear)"/>
<path id="Vector_67" opacity="0.7" d="M272.425 217.956C277.087 217.956 280.866 214.866 280.866 211.056C280.866 207.245 277.087 204.156 272.425 204.156C267.763 204.156 263.984 207.245 263.984 211.056C263.984 214.866 267.763 217.956 272.425 217.956Z" fill="url(#paint13_linear)"/>
<g id="Group_8" opacity="0.1">
<path id="Vector_68" opacity="0.1" d="M267.312 207.594C267.772 207.802 268.28 207.932 268.804 207.974C270.966 208.215 273.167 208.013 275.209 207.385C275.4 207.724 275.68 208.024 276.029 208.265C276.377 208.506 276.786 208.682 277.226 208.78C278.108 208.97 279.02 209.054 279.931 209.027C280.132 209.045 280.334 209.013 280.512 208.935C280.917 208.711 280.722 208.198 280.485 207.849L279.309 206.105C278.996 205.574 278.575 205.091 278.063 204.676C277.352 204.218 276.505 203.92 275.609 203.814C273.521 203.474 271.366 203.532 269.311 203.985C267.121 204.46 264.3 206.105 267.312 207.594Z" fill="url(#paint14_linear)"/>
</g>
<path id="Vector_69" opacity="0.7" d="M267.312 207.446C267.772 207.654 268.28 207.784 268.804 207.826C270.966 208.067 273.167 207.865 275.209 207.237C275.4 207.576 275.68 207.876 276.029 208.117C276.377 208.358 276.786 208.533 277.226 208.632C278.108 208.822 279.02 208.905 279.931 208.878C280.132 208.896 280.334 208.865 280.512 208.787C280.917 208.563 280.722 208.05 280.485 207.701L279.309 205.957C278.996 205.426 278.575 204.943 278.063 204.528C277.352 204.069 276.505 203.772 275.609 203.666C273.521 203.326 271.366 203.384 269.311 203.837C267.121 204.311 264.3 205.953 267.312 207.446Z" fill="url(#paint15_linear)"/>
<path id="Vector_70" opacity="0.7" d="M280.773 212.18C281.178 212.18 281.507 211.677 281.507 211.056C281.507 210.434 281.178 209.931 280.773 209.931C280.367 209.931 280.038 210.434 280.038 211.056C280.038 211.677 280.367 212.18 280.773 212.18Z" fill="url(#paint16_linear)"/>
<path id="Vector_71" opacity="0.7" d="M264.077 212.18C264.482 212.18 264.811 211.677 264.811 211.056C264.811 210.434 264.482 209.931 264.077 209.931C263.671 209.931 263.342 210.434 263.342 211.056C263.342 211.677 263.671 212.18 264.077 212.18Z" fill="url(#paint17_linear)"/>
<path id="Vector_72" opacity="0.7" d="M294.996 203.855C296.11 203.855 297.013 203.117 297.013 202.207C297.013 201.296 296.11 200.558 294.996 200.558C293.882 200.558 292.979 201.296 292.979 202.207C292.979 203.117 293.882 203.855 294.996 203.855Z" fill="url(#paint18_linear)"/>
<path id="00" opacity="0.7" d="M275.667 230.939C275.667 231.673 275.588 232.309 275.43 232.845C275.272 233.382 275.057 233.826 274.784 234.177C274.512 234.529 274.192 234.791 273.825 234.965C273.462 235.134 273.074 235.219 272.659 235.219C272.245 235.219 271.856 235.134 271.493 234.965C271.13 234.791 270.812 234.529 270.54 234.177C270.268 233.826 270.052 233.382 269.895 232.845C269.741 232.309 269.664 231.673 269.664 230.939C269.664 230.205 269.741 229.57 269.895 229.033C270.052 228.496 270.268 228.052 270.54 227.701C270.812 227.35 271.13 227.089 271.493 226.919C271.856 226.746 272.245 226.659 272.659 226.659C273.074 226.659 273.462 226.746 273.825 226.919C274.192 227.089 274.512 227.35 274.784 227.701C275.057 228.052 275.272 228.496 275.43 229.033C275.588 229.57 275.667 230.205 275.667 230.939ZM275.075 230.939C275.075 230.26 275.009 229.68 274.879 229.199C274.749 228.717 274.573 228.324 274.352 228.021C274.135 227.713 273.879 227.488 273.583 227.346C273.291 227.204 272.983 227.133 272.659 227.133C272.336 227.133 272.028 227.204 271.736 227.346C271.444 227.488 271.187 227.713 270.966 228.021C270.745 228.324 270.569 228.717 270.439 229.199C270.309 229.68 270.244 230.26 270.244 230.939C270.244 231.622 270.309 232.204 270.439 232.686C270.569 233.163 270.745 233.556 270.966 233.864C271.187 234.167 271.444 234.39 271.736 234.533C272.028 234.671 272.336 234.74 272.659 234.74C272.983 234.74 273.291 234.671 273.583 234.533C273.879 234.39 274.135 234.167 274.352 233.864C274.573 233.556 274.749 233.163 274.879 232.686C275.009 232.204 275.075 231.622 275.075 230.939ZM275.667 244.939C275.667 245.673 275.588 246.309 275.43 246.845C275.272 247.382 275.057 247.826 274.784 248.177C274.512 248.529 274.192 248.791 273.825 248.965C273.462 249.134 273.074 249.219 272.659 249.219C272.245 249.219 271.856 249.134 271.493 248.965C271.13 248.791 270.812 248.529 270.54 248.177C270.268 247.826 270.052 247.382 269.895 246.845C269.741 246.309 269.664 245.673 269.664 244.939C269.664 244.205 269.741 243.57 269.895 243.033C270.052 242.496 270.268 242.052 270.54 241.701C270.812 241.35 271.13 241.089 271.493 240.919C271.856 240.746 272.245 240.659 272.659 240.659C273.074 240.659 273.462 240.746 273.825 240.919C274.192 241.089 274.512 241.35 274.784 241.701C275.057 242.052 275.272 242.496 275.43 243.033C275.588 243.57 275.667 244.205 275.667 244.939ZM275.075 244.939C275.075 244.26 275.009 243.68 274.879 243.199C274.749 242.717 274.573 242.324 274.352 242.021C274.135 241.713 273.879 241.488 273.583 241.346C273.291 241.204 272.983 241.133 272.659 241.133C272.336 241.133 272.028 241.204 271.736 241.346C271.444 241.488 271.187 241.713 270.966 242.021C270.745 242.324 270.569 242.717 270.439 243.199C270.309 243.68 270.244 244.26 270.244 244.939C270.244 245.622 270.309 246.204 270.439 246.686C270.569 247.163 270.745 247.556 270.966 247.864C271.187 248.167 271.444 248.39 271.736 248.533C272.028 248.671 272.336 248.74 272.659 248.74C272.983 248.74 273.291 248.671 273.583 248.533C273.879 248.39 274.135 248.167 274.352 247.864C274.573 247.556 274.749 247.163 274.879 246.686C275.009 246.204 275.075 245.622 275.075 244.939Z" fill="black"/>
<path id="Vector_73" opacity="0.7" d="M272.611 213.753C272.611 213.753 267.842 215.102 264.17 212.104C264.17 212.104 264.467 213.1 264.979 214.297C265.806 215.578 267.105 216.615 268.693 217.258C270.281 217.902 272.077 218.121 273.826 217.884C275.575 217.647 277.188 216.966 278.436 215.937C279.685 214.909 280.506 213.585 280.782 212.154C279.899 212.541 273.629 215.007 272.611 213.753ZM272.429 215.554C271.5 215.554 270.779 214.984 270.779 214.654C270.779 214.323 271.518 214.354 272.429 214.354C273.34 214.354 274.079 214.323 274.079 214.654C274.079 214.984 273.336 215.554 272.425 215.554H272.429Z" fill="url(#paint19_linear)"/>
<path id="Vector_74" opacity="0.7" d="M276.91 219.912C276.91 219.912 286.736 215.406 292.793 202.207L295.73 203.707C295.73 203.707 290.868 220.528 278.667 224.407L276.91 219.912Z" fill="url(#paint20_linear)"/>
<path id="Vector_75" opacity="0.7" d="M249.858 203.855C250.972 203.855 251.876 203.117 251.876 202.207C251.876 201.296 250.972 200.558 249.858 200.558C248.744 200.558 247.841 201.296 247.841 202.207C247.841 203.117 248.744 203.855 249.858 203.855Z" fill="url(#paint21_linear)"/>
<path id="Vector_76" opacity="0.7" d="M267.939 219.912C267.939 219.912 258.113 215.406 252.057 202.207L249.138 203.704C249.138 203.704 254 220.524 266.201 224.403L267.939 219.912Z" fill="url(#paint22_linear)"/>
<path id="Vector_77" opacity="0.7" d="M269.673 274.652H264.351V274.428C264.351 273.851 264.631 273.299 265.13 272.891C265.628 272.483 266.305 272.254 267.01 272.254C267.715 272.254 268.391 272.483 268.89 272.891C269.388 273.299 269.668 273.851 269.668 274.428L269.673 274.652Z" fill="url(#paint23_linear)"/>
<path id="Vector_78" opacity="0.7" d="M280.498 274.652H275.167V274.428C275.167 273.851 275.447 273.299 275.946 272.891C276.444 272.483 277.121 272.254 277.826 272.254C278.531 272.254 279.207 272.483 279.706 272.891C280.204 273.299 280.485 273.851 280.485 274.428L280.498 274.652Z" fill="url(#paint24_linear)"/>
</g>
<path id="Vector_79" d="M280.624 233.378H264.23V243.283H280.624V233.378Z" fill="#4D8AF0"/>
<path id="Vector_80" opacity="0.1" d="M264.23 235.999C264.23 235.999 270.347 236.581 272.425 236.581C274.502 236.581 280.619 235.999 280.619 235.999V233.526H264.23V235.999Z" fill="black"/>
<path id="Vector_81" d="M280.619 235.855C280.619 235.855 274.502 236.436 272.425 236.436C270.347 236.436 264.23 235.855 264.23 235.855V226.098C264.23 224.321 265.094 222.617 266.63 221.361C268.167 220.105 270.251 219.399 272.425 219.399C274.598 219.399 276.682 220.105 278.219 221.361C279.756 222.617 280.619 224.321 280.619 226.098V235.855Z" fill="#6C63FF"/>
<path id="Vector_82" d="M270.463 216.048H274.382V219.688C274.382 220.113 274.175 220.521 273.807 220.822C273.439 221.123 272.94 221.291 272.42 221.291C271.9 221.291 271.401 221.123 271.033 220.822C270.665 220.521 270.459 220.113 270.459 219.688V216.048H270.463Z" fill="#FDB797"/>
<path id="Vector_83" d="M270.11 239.788H264.23V272.41H270.11V239.788Z" fill="#4D8AF0"/>
<path id="Vector_84" d="M280.619 239.788H274.74V272.41H280.619V239.788Z" fill="#4D8AF0"/>
<path id="Vector_85" opacity="0.1" d="M270.468 218.476C271.755 218.735 273.099 218.735 274.386 218.476V216.196H270.468V218.476Z" fill="black"/>
<path id="Vector_86" d="M272.425 217.215C277.148 217.215 280.977 214.085 280.977 210.223C280.977 206.362 277.148 203.232 272.425 203.232C267.701 203.232 263.872 206.362 263.872 210.223C263.872 214.085 267.701 217.215 272.425 217.215Z" fill="#814E4D"/>
<path id="Vector_87" d="M272.425 218.522C276.951 218.522 280.619 215.523 280.619 211.823C280.619 208.124 276.951 205.125 272.425 205.125C267.899 205.125 264.23 208.124 264.23 211.823C264.23 215.523 267.899 218.522 272.425 218.522Z" fill="#FDB797"/>
<path id="Vector_88" opacity="0.1" d="M267.461 208.464C267.909 208.663 268.403 208.784 268.911 208.821C271.01 209.056 273.147 208.86 275.13 208.252C275.316 208.581 275.588 208.873 275.927 209.107C276.266 209.342 276.663 209.513 277.091 209.608C277.948 209.793 278.833 209.874 279.718 209.847C279.913 209.866 280.111 209.835 280.285 209.76C280.68 209.543 280.489 209.046 280.257 208.704L279.113 207.013C278.81 206.498 278.401 206.029 277.905 205.626C277.214 205.181 276.391 204.893 275.52 204.79C273.493 204.461 271.4 204.518 269.404 204.957C267.265 205.421 264.532 207.017 267.461 208.464Z" fill="black"/>
<path id="Vector_89" d="M267.461 208.32C267.909 208.518 268.403 208.64 268.911 208.677C271.01 208.912 273.147 208.716 275.13 208.107C275.316 208.437 275.588 208.729 275.927 208.963C276.266 209.197 276.663 209.368 277.091 209.464C277.948 209.649 278.833 209.729 279.718 209.703C279.913 209.721 280.111 209.691 280.285 209.616C280.68 209.399 280.489 208.901 280.257 208.559L279.113 206.869C278.81 206.353 278.401 205.884 277.905 205.482C277.214 205.037 276.391 204.748 275.52 204.646C273.493 204.316 271.4 204.373 269.404 204.813C267.265 205.277 264.532 206.872 267.461 208.32Z" fill="#814E4D"/>
<path id="Vector_90" d="M280.531 212.914C280.924 212.914 281.242 212.425 281.242 211.823C281.242 211.221 280.924 210.733 280.531 210.733C280.138 210.733 279.82 211.221 279.82 211.823C279.82 212.425 280.138 212.914 280.531 212.914Z" fill="#FDB797"/>
<path id="Vector_91" d="M264.318 212.914C264.711 212.914 265.03 212.425 265.03 211.823C265.03 211.221 264.711 210.733 264.318 210.733C263.926 210.733 263.607 211.221 263.607 211.823C263.607 212.425 263.926 212.914 264.318 212.914Z" fill="#FDB797"/>
<path id="Vector_92" d="M294.341 204.836C295.424 204.836 296.302 204.118 296.302 203.232C296.302 202.347 295.424 201.629 294.341 201.629C293.257 201.629 292.379 202.347 292.379 203.232C292.379 204.118 293.257 204.836 294.341 204.836Z" fill="#FDB797"/>
<path id="Vector_93" d="M272.606 214.445C272.606 214.445 267.958 215.756 264.411 212.841C264.411 212.841 264.7 213.806 265.197 214.973C266.001 216.216 267.263 217.221 268.804 217.845C270.345 218.469 272.088 218.681 273.784 218.451C275.481 218.221 277.046 217.56 278.258 216.562C279.47 215.564 280.267 214.279 280.536 212.891C279.685 213.271 273.596 215.661 272.606 214.445ZM272.429 216.193C271.542 216.193 270.826 215.642 270.826 215.319C270.826 214.996 271.542 215.026 272.429 215.026C273.317 215.026 274.033 214.996 274.033 215.319C274.033 215.642 273.308 216.193 272.425 216.193H272.429Z" fill="#814E4D"/>
<path id="Vector_94" d="M276.78 220.425C276.78 220.425 286.323 216.048 292.202 203.232L295.052 204.688C295.052 204.688 290.329 221.026 278.481 224.787L276.78 220.425Z" fill="#6C63FF"/>
<path id="Vector_95" d="M250.509 204.836C251.592 204.836 252.471 204.118 252.471 203.232C252.471 202.347 251.592 201.629 250.509 201.629C249.426 201.629 248.548 202.347 248.548 203.232C248.548 204.118 249.426 204.836 250.509 204.836Z" fill="#FDB797"/>
<path id="Vector_96" d="M268.07 220.425C268.07 220.425 258.527 216.048 252.647 203.232L249.798 204.688C249.798 204.688 254.52 221.026 266.368 224.787L268.07 220.425Z" fill="#6C63FF"/>
<path id="Vector_97" d="M267.168 271.248C267.853 271.248 268.511 271.47 268.995 271.866C269.48 272.262 269.752 272.8 269.752 273.36V273.565H264.588V273.349C264.592 272.791 264.865 272.257 265.348 271.864C265.832 271.47 266.486 271.249 267.168 271.248Z" fill="#333333"/>
<path id="Vector_98" d="M277.682 271.248C278.367 271.248 279.024 271.47 279.509 271.866C279.994 272.262 280.266 272.8 280.266 273.36V273.565H275.097V273.349C275.101 272.79 275.375 272.256 275.859 271.862C276.344 271.469 276.999 271.248 277.682 271.248Z" fill="#333333"/>
</g>
<defs>
<linearGradient id="paint0_linear" x1="61.8801" y1="51.833" x2="61.8801" y2="42.7636" gradientUnits="userSpaceOnUse">
<stop stop-color="#808080" stop-opacity="0.25"/>
<stop offset="0.54" stop-color="#808080" stop-opacity="0.12"/>
<stop offset="1" stop-color="#808080" stop-opacity="0.1"/>
</linearGradient>
<linearGradient id="paint1_linear" x1="42578.5" y1="17344.3" x2="42578.5" y2="5688.48" gradientUnits="userSpaceOnUse">
<stop stop-color="#808080" stop-opacity="0.25"/>
<stop offset="0.54" stop-color="#808080" stop-opacity="0.12"/>
<stop offset="1" stop-color="#808080" stop-opacity="0.1"/>
</linearGradient>
<linearGradient id="paint2_linear" x1="3525.58" y1="1984.94" x2="3525.58" y2="1701.29" gradientUnits="userSpaceOnUse">
<stop stop-color="#808080" stop-opacity="0.25"/>
<stop offset="0.54" stop-color="#808080" stop-opacity="0.12"/>
<stop offset="1" stop-color="#808080" stop-opacity="0.1"/>
</linearGradient>
<linearGradient id="paint3_linear" x1="4409.8" y1="3084.89" x2="4409.8" y2="2474.1" gradientUnits="userSpaceOnUse">
<stop stop-color="#808080" stop-opacity="0.25"/>
<stop offset="0.54" stop-color="#808080" stop-opacity="0.12"/>
<stop offset="1" stop-color="#808080" stop-opacity="0.1"/>
</linearGradient>
<linearGradient id="paint4_linear" x1="64177" y1="16607.2" x2="64177" y2="11903.4" gradientUnits="userSpaceOnUse">
<stop stop-color="#808080" stop-opacity="0.25"/>
<stop offset="0.54" stop-color="#808080" stop-opacity="0.12"/>
<stop offset="1" stop-color="#808080" stop-opacity="0.1"/>
</linearGradient>
<linearGradient id="paint5_linear" x1="9851.87" y1="6630.56" x2="10465" y2="6630.56" gradientUnits="userSpaceOnUse">
<stop stop-color="#808080" stop-opacity="0.25"/>
<stop offset="0.54" stop-color="#808080" stop-opacity="0.12"/>
<stop offset="1" stop-color="#808080" stop-opacity="0.1"/>
</linearGradient>
<linearGradient id="paint6_linear" x1="14224.3" y1="2450.62" x2="14837.4" y2="2450.62" gradientUnits="userSpaceOnUse">
<stop stop-color="#808080" stop-opacity="0.25"/>
<stop offset="0.54" stop-color="#808080" stop-opacity="0.12"/>
<stop offset="1" stop-color="#808080" stop-opacity="0.1"/>
</linearGradient>
<linearGradient id="paint7_linear" x1="14224.3" y1="12233.2" x2="14837.4" y2="12233.2" gradientUnits="userSpaceOnUse">
<stop stop-color="#808080" stop-opacity="0.25"/>
<stop offset="0.54" stop-color="#808080" stop-opacity="0.12"/>
<stop offset="1" stop-color="#808080" stop-opacity="0.1"/>
</linearGradient>
<linearGradient id="paint8_linear" x1="3662.52" y1="3776.18" x2="3697.54" y2="3776.18" gradientUnits="userSpaceOnUse">
<stop stop-color="#808080" stop-opacity="0.25"/>
<stop offset="0.54" stop-color="#808080" stop-opacity="0.12"/>
<stop offset="1" stop-color="#808080" stop-opacity="0.1"/>
</linearGradient>
<linearGradient id="paint9_linear" x1="3703.71" y1="22935.4" x2="3782.62" y2="22935.4" gradientUnits="userSpaceOnUse">
<stop stop-color="#808080" stop-opacity="0.25"/>
<stop offset="0.54" stop-color="#808080" stop-opacity="0.12"/>
<stop offset="1" stop-color="#808080" stop-opacity="0.1"/>
</linearGradient>
<linearGradient id="paint10_linear" x1="3855.57" y1="22935.4" x2="3934.48" y2="22935.4" gradientUnits="userSpaceOnUse">
<stop stop-color="#808080" stop-opacity="0.25"/>
<stop offset="0.54" stop-color="#808080" stop-opacity="0.12"/>
<stop offset="1" stop-color="#808080" stop-opacity="0.1"/>
</linearGradient>
<linearGradient id="paint11_linear" x1="3662.52" y1="1892.39" x2="3697.54" y2="1892.39" gradientUnits="userSpaceOnUse">
<stop stop-color="#808080" stop-opacity="0.25"/>
<stop offset="0.54" stop-color="#808080" stop-opacity="0.12"/>
<stop offset="1" stop-color="#808080" stop-opacity="0.1"/>
</linearGradient>
<linearGradient id="paint12_linear" x1="10254.7" y1="8138.56" x2="10922.3" y2="8138.56" gradientUnits="userSpaceOnUse">
<stop stop-color="#808080" stop-opacity="0.25"/>
<stop offset="0.54" stop-color="#808080" stop-opacity="0.12"/>
<stop offset="1" stop-color="#808080" stop-opacity="0.1"/>
</linearGradient>
<linearGradient id="paint13_linear" x1="9851.87" y1="7869.69" x2="10465" y2="7869.69" gradientUnits="userSpaceOnUse">
<stop stop-color="#808080" stop-opacity="0.25"/>
<stop offset="0.54" stop-color="#808080" stop-opacity="0.12"/>
<stop offset="1" stop-color="#808080" stop-opacity="0.1"/>
</linearGradient>
<linearGradient id="paint14_linear" x1="12524.2" y1="3619.6" x2="12992.1" y2="3619.6" gradientUnits="userSpaceOnUse">
<stop stop-color="#808080" stop-opacity="0.25"/>
<stop offset="0.54" stop-color="#808080" stop-opacity="0.12"/>
<stop offset="1" stop-color="#808080" stop-opacity="0.1"/>
</linearGradient>
<linearGradient id="paint15_linear" x1="12524.2" y1="3617.27" x2="12992.1" y2="3617.27" gradientUnits="userSpaceOnUse">
<stop stop-color="#808080" stop-opacity="0.25"/>
<stop offset="0.54" stop-color="#808080" stop-opacity="0.12"/>
<stop offset="1" stop-color="#808080" stop-opacity="0.1"/>
</linearGradient>
<linearGradient id="paint16_linear" x1="1164.95" y1="1459.37" x2="1169.59" y2="1459.37" gradientUnits="userSpaceOnUse">
<stop stop-color="#808080" stop-opacity="0.25"/>
<stop offset="0.54" stop-color="#808080" stop-opacity="0.12"/>
<stop offset="1" stop-color="#808080" stop-opacity="0.1"/>
</linearGradient>
<linearGradient id="paint17_linear" x1="1095.51" y1="1459.37" x2="1100.15" y2="1459.37" gradientUnits="userSpaceOnUse">
<stop stop-color="#808080" stop-opacity="0.25"/>
<stop offset="0.54" stop-color="#808080" stop-opacity="0.12"/>
<stop offset="1" stop-color="#808080" stop-opacity="0.1"/>
</linearGradient>
<linearGradient id="paint18_linear" x1="2835.97" y1="1955.71" x2="2871.03" y2="1955.71" gradientUnits="userSpaceOnUse">
<stop stop-color="#808080" stop-opacity="0.25"/>
<stop offset="0.54" stop-color="#808080" stop-opacity="0.12"/>
<stop offset="1" stop-color="#808080" stop-opacity="0.1"/>
</linearGradient>
<linearGradient id="paint19_linear" x1="14008.2" y1="4037.91" x2="14601.1" y2="4037.91" gradientUnits="userSpaceOnUse">
<stop stop-color="#808080" stop-opacity="0.25"/>
<stop offset="0.54" stop-color="#808080" stop-opacity="0.12"/>
<stop offset="1" stop-color="#808080" stop-opacity="0.1"/>
</linearGradient>
<linearGradient id="paint20_linear" x1="16363.4" y1="14563.3" x2="17125.4" y2="14563.3" gradientUnits="userSpaceOnUse">
<stop stop-color="#808080" stop-opacity="0.25"/>
<stop offset="0.54" stop-color="#808080" stop-opacity="0.12"/>
<stop offset="1" stop-color="#808080" stop-opacity="0.1"/>
</linearGradient>
<linearGradient id="paint21_linear" x1="2399.06" y1="1955.71" x2="2434.12" y2="1955.71" gradientUnits="userSpaceOnUse">
<stop stop-color="#808080" stop-opacity="0.25"/>
<stop offset="0.54" stop-color="#808080" stop-opacity="0.12"/>
<stop offset="1" stop-color="#808080" stop-opacity="0.1"/>
</linearGradient>
<linearGradient id="paint22_linear" x1="15195.8" y1="14560.9" x2="15956.9" y2="14560.9" gradientUnits="userSpaceOnUse">
<stop stop-color="#808080" stop-opacity="0.25"/>
<stop offset="0.54" stop-color="#808080" stop-opacity="0.12"/>
<stop offset="1" stop-color="#808080" stop-opacity="0.1"/>
</linearGradient>
<linearGradient id="paint23_linear" x1="4669.6" y1="2202.72" x2="4730.54" y2="2202.72" gradientUnits="userSpaceOnUse">
<stop stop-color="#808080" stop-opacity="0.25"/>
<stop offset="0.54" stop-color="#808080" stop-opacity="0.12"/>
<stop offset="1" stop-color="#808080" stop-opacity="0.1"/>
</linearGradient>
<linearGradient id="paint24_linear" x1="4812.26" y1="2202.72" x2="4873.31" y2="2202.72" gradientUnits="userSpaceOnUse">
<stop stop-color="#808080" stop-opacity="0.25"/>
<stop offset="0.54" stop-color="#808080" stop-opacity="0.12"/>
<stop offset="1" stop-color="#808080" stop-opacity="0.1"/>
</linearGradient>
<clipPath id="clip0">
<rect width="317" height="277" fill="white"/>
</clipPath>
</defs>
</svg>
