<svg width="369" height="321" viewBox="0 0 369 321" fill="none" xmlns="http://www.w3.org/2000/svg">
<path d="M158.143 300.203C227.31 300.203 283.381 233 283.381 150.102C283.381 67.2027 227.31 0 158.143 0C88.9756 0 32.9045 67.2027 32.9045 150.102C32.9045 233 88.9756 300.203 158.143 300.203Z" fill="#F2F2F2"/>
<path d="M49.6924 321C77.1368 321 99.3849 316.734 99.3849 311.471C99.3849 306.208 77.1368 301.941 49.6924 301.941C22.2481 301.941 0 306.208 0 311.471C0 316.734 22.2481 321 49.6924 321Z" fill="#F2F2F2"/>
<path d="M292.111 311.313C334.576 311.313 369 304.712 369 296.569C369 288.426 334.576 281.824 292.111 281.824C249.646 281.824 215.222 288.426 215.222 296.569C215.222 304.712 249.646 311.313 292.111 311.313Z" fill="#F2F2F2"/>
<path d="M275.028 154.844C275.028 154.844 275.682 157.459 271.973 159.813C268.263 162.166 267.172 171.058 271.536 173.673C275.9 176.289 277.21 179.688 275.028 182.042C272.846 184.396 268.918 190.672 274.155 192.241C279.392 193.811 280.046 196.949 278.519 198.256C276.991 199.564 282.01 195.903 282.01 195.903C282.01 195.903 282.883 202.179 287.465 200.61C292.047 199.041 304.921 169.228 298.375 165.043C291.829 160.859 275.028 154.844 275.028 154.844Z" fill="#2F2E41"/>
<path d="M282.936 180.096C282.936 180.096 285.2 189.591 281.239 190.269C278.781 190.728 276.451 191.892 274.449 193.66L281.805 205.189H295.385L303.873 195.017C303.873 195.017 292.556 184.844 294.819 178.74C297.083 172.636 282.936 180.096 282.936 180.096Z" fill="#FFB9B9"/>
<path opacity="0.1" d="M282.936 180.096C282.936 180.096 285.2 189.591 281.239 190.269C278.781 190.728 276.451 191.892 274.449 193.66L281.805 205.189H295.385L303.873 195.017C303.873 195.017 292.556 184.844 294.819 178.74C297.083 172.636 282.936 180.096 282.936 180.096Z" fill="black"/>
<path d="M286.332 298.102L299.346 303.527L308.4 304.205L307.834 294.711L289.161 288.092L286.332 298.102Z" fill="#FFB9B9"/>
<path d="M303.024 296.067C303.024 296.067 303.024 305.562 304.156 305.562C305.288 305.562 320.566 303.527 325.093 305.562C329.619 307.596 336.41 300.136 333.015 296.067C329.619 291.998 324.081 285.894 320.626 287.251C317.171 288.607 303.024 291.998 303.024 291.998V296.067Z" fill="#575A89"/>
<path d="M261.434 287.251C261.434 287.251 254.644 303.527 259.17 304.884C263.697 306.24 268.79 304.205 269.356 303.527C269.922 302.849 277.844 300.136 278.975 301.493C280.107 302.849 280.107 296.067 280.107 296.067L261.434 287.251Z" fill="#575A89"/>
<path d="M267.092 264.87C267.092 264.87 256.341 282.503 264.263 287.251C272.185 291.998 310.097 291.998 312.927 287.251C315.756 282.503 316.888 267.583 312.927 266.227C308.966 264.87 267.092 264.87 267.092 264.87Z" fill="#2F2E41"/>
<path opacity="0.2" d="M267.092 264.87C267.092 264.87 256.341 282.503 264.263 287.251C272.185 291.998 310.097 291.998 312.927 287.251C315.756 282.503 316.888 267.583 312.927 266.227C308.966 264.87 267.092 264.87 267.092 264.87Z" fill="black"/>
<path d="M287.463 184.844C294.651 184.844 300.478 177.86 300.478 169.245C300.478 160.631 294.651 153.647 287.463 153.647C280.275 153.647 274.449 160.631 274.449 169.245C274.449 177.86 280.275 184.844 287.463 184.844Z" fill="#FFB9B9"/>
<path d="M267.092 193.66L278.41 190.947C278.41 190.947 281.239 201.798 290.292 199.764C299.346 197.729 301.61 190.947 301.61 190.947C301.61 190.947 308.4 194.338 308.966 194.338C309.532 194.338 316.888 197.729 316.888 199.764C316.888 201.798 308.4 222.144 308.4 222.144L309.532 258.767L267.658 257.41L270.488 221.466L267.092 193.66Z" fill="#6C63FF"/>
<path d="M260.868 211.293C260.868 211.293 257.473 247.237 259.736 249.95C262 252.663 271.053 260.123 271.053 260.123V251.985L266.527 241.812L271.053 218.075L260.868 211.293Z" fill="#FFB9B9"/>
<path d="M319.434 210.276C319.434 210.276 317.454 247.237 317.454 248.594C317.454 249.95 312.361 254.697 310.663 254.697C308.966 254.697 307.834 251.306 307.834 251.306L311.795 245.881L308.966 218.075L319.434 210.276Z" fill="#FFB9B9"/>
<path d="M314.058 262.158C314.058 262.158 339.522 245.203 340.088 262.158C340.654 279.112 327.073 285.894 327.073 285.894C327.073 285.894 291.99 298.503 290.575 293.894C289.161 289.285 286.331 281.825 288.595 281.147C290.858 280.469 293.688 279.112 294.819 280.469C295.951 281.825 310.097 270.296 310.097 270.296L314.058 262.158Z" fill="#2F2E41"/>
<path opacity="0.2" d="M325.941 260.123C325.941 260.123 320.849 262.836 319.151 264.87C317.454 266.905 310.097 270.296 310.097 270.296" stroke="black" stroke-width="2" stroke-miterlimit="10"/>
<path d="M270.488 195.017L267.092 193.66C267.092 193.66 254.644 209.259 258.605 213.328C262.566 217.397 264.829 218.753 265.961 220.11C267.092 221.466 272.751 222.144 272.751 222.144L270.488 195.017Z" fill="#6C63FF"/>
<path d="M311.795 198.408L316.888 199.764C316.888 199.764 320.849 209.937 321.98 211.293C323.112 212.65 320.283 211.971 318.585 214.684C316.888 217.397 315.19 222.144 311.795 222.144C308.4 222.144 303.873 215.362 303.873 215.362L311.795 198.408Z" fill="#6C63FF"/>
<path d="M268.224 268.261C268.224 268.261 246.722 249.95 239.366 263.514C232.009 277.078 271.053 295.389 276.712 298.102C282.371 300.815 287.463 303.527 287.463 303.527C287.463 303.527 292.556 288.607 292.556 285.894C292.556 283.182 288.595 283.182 287.463 283.182C286.332 283.182 281.239 281.825 280.107 279.791C278.975 277.756 268.224 268.261 268.224 268.261Z" fill="#2F2E41"/>
<path opacity="0.2" d="M256.341 263.514C256.341 263.514 262 268.94 267.092 270.296C272.185 271.652 273.883 275.043 273.883 275.043" stroke="black" stroke-width="2" stroke-miterlimit="10"/>
<path d="M264.321 238.014L264.773 266.729C264.788 267.678 265.115 268.581 265.683 269.241C266.251 269.902 267.014 270.266 267.805 270.256L312.391 269.655C313.15 269.645 313.879 269.29 314.428 268.661C314.978 268.032 315.308 267.177 315.351 266.268L316.705 238.153C316.728 237.665 316.668 237.175 316.528 236.716C316.389 236.256 316.172 235.835 315.891 235.479C315.611 235.123 315.273 234.839 314.898 234.645C314.523 234.452 314.119 234.352 313.71 234.352H267.32C266.921 234.352 266.526 234.447 266.159 234.632C265.791 234.817 265.458 235.088 265.179 235.429C264.9 235.77 264.68 236.174 264.533 236.618C264.385 237.062 264.313 237.537 264.321 238.014V238.014Z" fill="#575A89"/>
<path d="M288.159 149.651C288.159 149.651 288.884 152.548 284.774 155.155C280.665 157.763 279.457 167.613 284.291 170.51C289.125 173.407 290.576 177.173 288.159 179.781C285.741 182.388 281.39 189.341 287.192 191.08C292.993 192.818 293.718 196.295 292.026 197.743C290.334 199.192 295.894 195.136 295.894 195.136C295.894 195.136 296.861 202.089 301.937 200.351C307.013 198.612 312.078 167.014 306.419 158.876C301.158 151.309 288.159 149.651 288.159 149.651Z" fill="#2F2E41"/>
<path d="M286.614 146.669C286.615 142.424 297.211 145.474 301.753 151.4C304.899 155.504 309.677 161.678 305.673 166.03C301.669 170.382 312.536 176.087 315.45 177.817C318.364 179.547 324.118 184.836 318.923 188.385C313.727 191.934 313.811 195.516 315.766 196.364C317.722 197.212 311.455 195.103 311.455 195.103C311.455 195.103 312.088 202.111 306.809 202.077C301.53 202.044 286.384 167.271 290.002 157.605C293.367 148.618 286.614 146.669 286.614 146.669Z" fill="#2F2E41"/>
<path d="M288.909 145.738C274.741 144.716 273.319 157.498 273.319 157.498C273.417 164.895 283.218 161.291 285.94 162.394C289.225 159.562 295.555 154.205 300.082 150.381C296.796 147.607 292.924 145.998 288.909 145.738Z" fill="#2F2E41"/>
<path d="M284.873 227.305C284.873 227.305 272.164 155.916 192.615 104.13" stroke="#3F3D56" stroke-width="2" stroke-miterlimit="10"/>
<path d="M195.893 102.572L196.052 103.355L192.834 104.29L193.848 108.069L193.208 108.315L191.974 103.712L195.893 102.572Z" fill="#3F3D56"/>
<path d="M70.7692 297.905L72.9119 295.997C72.9119 295.997 74.3303 305.493 72.7476 306.916C71.1649 308.338 65.2297 310.71 65.2297 313.555C65.2297 316.4 51.7766 320.194 51.3809 315.926C50.9852 311.658 52.5679 309.287 52.5679 309.287C52.5679 309.287 58.8988 301.699 59.6902 300.277C60.4815 298.854 62.4599 296.008 62.4599 296.008L70.7692 297.905Z" fill="#2F2E41"/>
<path d="M39.1148 179.821C39.1148 179.821 39.1742 180.239 39.277 181.002C39.372 181.68 39.5026 182.638 39.6608 183.819C41.3227 195.974 46.1698 231.755 45.8414 232.935C45.4457 234.358 42.6759 239.575 45.8414 240.997C46.146 241.135 46.4744 241.581 46.8266 242.283C47.5063 243.794 48.0666 245.379 48.5003 247.015C50.3877 253.579 52.4057 264.083 53.573 271.358C54.0834 274.554 54.4316 277.124 54.5344 278.471C54.5702 278.783 54.5742 279.098 54.5463 279.41C54.1506 281.307 56.9204 287.946 58.1074 289.843C59.2945 291.74 61.2729 293.637 60.8772 295.534C60.4815 297.431 70.7692 302.648 71.9562 299.328C73.1433 296.008 73.1433 294.111 73.539 293.163C73.9346 292.215 74.3303 285.575 72.3519 284.627C70.3735 283.678 71.5606 267.08 69.5822 263.761C68.9214 262.656 67.9124 258.914 66.8559 254.413C66.4405 252.649 66.021 250.771 65.6095 248.889C63.9398 241.173 62.4599 233.41 62.4599 233.41L62.8556 177.924L41.0932 174.605L40.5353 176.08L39.4234 179.006L39.1148 179.821Z" fill="#2F2E41"/>
<path d="M37.9277 270.874C37.9277 270.874 34.7623 267.08 33.1796 270.874C31.5969 274.668 30.0141 289.369 27.2444 292.689C24.4746 296.008 20.9135 312.607 24.8703 313.555C28.8271 314.503 33.1796 312.132 33.5753 309.287C33.9709 306.442 42.2802 291.74 42.2802 290.318C42.2802 288.895 36.7407 283.678 36.7407 283.678L37.9277 270.874Z" fill="#2F2E41"/>
<path d="M86.5964 153.739C86.5964 153.739 81.4525 209.224 80.2655 214.44C79.0785 219.657 72.7476 239.575 70.7692 242.894C68.7908 246.214 56.129 273.245 54.5463 274.668C52.9636 276.091 49.7982 279.885 49.7982 279.885C49.7982 279.885 43.863 286.998 43.0716 288.421C42.2803 289.843 35.5537 285.575 35.158 282.73C34.7623 279.885 35.5537 275.142 35.9494 273.245C36.345 271.348 35.158 268.503 36.3451 267.08C37.5321 265.658 43.4673 258.544 43.4673 255.224C43.4673 251.905 53.755 232.461 57.7118 228.193C61.6686 223.925 60.8772 216.812 60.8772 216.812V187.883L39.1148 179.821C39.1148 179.821 40.3018 157.058 43.0716 157.058C45.8414 157.058 82.2439 149.471 86.5964 153.739Z" fill="#2F2E41"/>
<path d="M54.5463 74.5418C61.7577 74.5418 67.6038 67.5352 67.6038 58.8921C67.6038 50.249 61.7577 43.2424 54.5463 43.2424C47.3349 43.2424 41.4889 50.249 41.4889 58.8921C41.4889 67.5352 47.3349 74.5418 54.5463 74.5418Z" fill="#9F616A"/>
<path d="M58.8988 71.2222C58.8988 71.2222 60.4815 78.3357 62.4599 80.2326C64.4383 82.1296 57.3161 90.1915 57.3161 90.1915L43.863 91.14L41.4889 82.1296C41.4889 82.1296 45.8414 71.6964 44.6543 65.0572C43.4673 58.4179 58.8988 71.2222 58.8988 71.2222Z" fill="#9F616A"/>
<path d="M64.4383 79.2841C64.4383 79.2841 60.8772 79.7584 60.0858 81.1811C59.2945 82.6038 53.755 86.8718 49.4025 85.9234C45.05 84.9749 42.2802 83.5522 41.4889 84.0264C40.6975 84.5007 39.1148 94.4596 39.1148 94.4596L43.4673 109.635L42.6759 151.367L41.4889 162.749C41.4889 162.749 39.1148 158.955 48.6111 161.326C58.1074 163.698 70.3735 159.429 74.3303 158.955C78.2871 158.481 85.0137 157.058 85.4094 154.213C85.805 151.367 84.2223 140.934 84.2223 140.934L77.8914 109.161L73.9346 92.0884L64.4383 79.2841Z" fill="#6C63FF"/>
<path d="M60.6956 77.1437C60.6956 77.1437 64.0426 75.016 65.2297 76.913C66.4167 78.8099 81.4525 81.6553 81.4525 83.078C81.4525 84.5007 84.618 122.914 83.8266 126.233C83.0353 129.553 85.4094 133.347 85.4094 133.347L88.1791 147.574C88.1791 147.574 95.697 174.605 92.5316 175.553C89.3661 176.502 86.5964 175.553 85.4094 175.553C84.2223 175.553 84.618 157.533 81.4525 152.79C78.2871 148.048 73.9346 136.192 73.1433 133.821C72.3519 131.45 62.4599 98.7277 62.8556 94.9338C63.2513 91.14 60.6956 77.1437 60.6956 77.1437Z" fill="#D0CDE1"/>
<path d="M44.2586 79.2841C44.2586 79.2841 41.0932 79.2841 40.6975 80.2326C40.3018 81.1811 36.345 87.3461 34.7623 88.7688C33.1796 90.1915 27.6401 96.3565 27.6401 97.7792C27.6401 99.2019 39.1148 109.635 39.1148 109.635C39.1148 109.635 43.8629 137.615 41.4889 147.099C39.1148 156.584 35.5537 179.347 37.1364 180.77C38.7191 182.193 42.2802 182.667 42.2802 180.77C42.2802 178.873 44.6543 158.481 46.6327 154.213C48.6111 149.945 54.5463 122.914 52.1722 115.326C49.7981 107.738 44.2586 79.2841 44.2586 79.2841Z" fill="#D0CDE1"/>
<path d="M96.4883 126.233C96.4883 126.233 96.884 140.934 92.5315 148.522C88.1791 156.11 85.4093 164.646 85.4093 164.646C85.4093 164.646 78.2871 162.275 77.1 159.429C75.913 156.584 68.3951 158.955 68.3951 158.007C68.3951 157.058 77.4957 152.316 78.2871 151.367C79.0784 150.419 81.8482 150.419 83.4309 148.522C85.0136 146.625 85.4093 142.357 85.4093 142.357L86.992 130.027L96.4883 126.233Z" fill="#9F616A"/>
<path d="M63.5396 49.2429C64.5441 49.1335 65.5801 49.0132 66.4679 48.4393C68.4572 47.1536 68.9846 43.4921 67.4703 41.4813C67.0528 40.9696 66.5858 40.5196 66.0792 40.1407L63.0716 37.687C61.7413 36.6019 60.3796 35.4989 58.8282 34.9873C57.4249 34.5246 55.9428 34.5722 54.4901 34.6804C51.6702 34.8905 48.8328 35.3244 46.1805 36.4913C43.5282 37.6582 41.0541 39.6104 39.4477 42.3961C36.9011 46.8123 36.8661 52.7683 38.2687 57.8666C39.6713 62.9649 42.3356 67.4044 44.9608 71.754L46.3229 63.7882C46.4443 63.0787 46.6012 62.3011 47.0935 61.8812C48.3172 60.8376 49.8141 62.9804 51.3159 62.9665C52.2809 62.9576 53.0911 62.0063 53.4568 60.936C53.8225 59.8656 53.8466 58.6803 53.9312 57.5281C54.1104 55.0878 54.8221 51.6923 56.7503 50.3464C58.5471 49.0923 61.5199 49.4627 63.5396 49.2429Z" fill="#2F2E41"/>
<path opacity="0.1" d="M62.8071 180.204C62.8071 180.204 61.4707 226.533 60.6794 227.956C59.888 229.379 60.6794 180.059 60.6794 180.059L62.8071 180.204Z" fill="black"/>
<path d="M78.2871 83.078H81.4525C81.4525 83.078 94.9057 104.893 93.3229 106.315C91.7402 107.738 93.3229 111.532 93.3229 111.532L96.4884 118.645C96.4884 118.645 100.445 122.914 99.2581 123.862C98.0711 124.81 96.4884 128.604 96.4884 128.604C96.4884 128.604 88.5748 127.182 86.2007 132.872L81.0688 125.108L78.2871 83.078Z" fill="#D0CDE1"/>
<path d="M79.4059 90.0947L68.5439 95.4705L76.9026 119.731L87.7645 114.355L79.4059 90.0947Z" fill="#2F2E41"/>
<path d="M78.1328 104.323C79.3326 103.73 79.9362 102.177 79.4811 100.856C79.026 99.5353 77.6844 98.9458 76.4846 99.5396C75.2849 100.133 74.6812 101.686 75.1363 103.007C75.5915 104.328 76.933 104.917 78.1328 104.323Z" fill="#6C63FF"/>
<path d="M70.3735 121.017C70.3735 121.017 41.8846 149.471 37.1364 140.46C32.3883 131.45 42.2803 123.862 42.2803 123.862C42.2803 123.862 50.9852 124.336 60.8772 116.749L70.7692 111.532C70.7692 111.532 79.7998 96.0795 82.8772 101.964C85.9545 107.848 77.6242 118.089 70.3735 121.017Z" fill="#9F616A"/>
<path d="M31.9926 95.8823L27.6401 97.7792V112.006L26.0574 114.852C26.0574 114.852 26.4531 120.542 27.6401 121.965C28.8271 123.388 31.2012 122.914 30.4099 126.233C29.9342 128.397 29.8 130.649 30.0142 132.872C30.0142 132.872 37.1364 143.78 37.5321 142.357C37.9278 140.934 43.4673 123.388 44.2586 123.388C45.05 123.388 36.3451 95.8823 36.3451 95.8823H31.9926Z" fill="#D0CDE1"/>
<path d="M84.0244 167.729C84.0244 167.729 88.1157 162.986 86.0701 162.749C84.0245 162.512 76.9022 157.77 75.7152 160.141C74.5281 162.512 84.0244 167.729 84.0244 167.729Z" fill="#2F2E41"/>
<path d="M161.836 77.2642C164.989 77.2642 167.544 75.6426 167.544 73.6424C167.544 71.6422 164.989 70.0207 161.836 70.0207C158.684 70.0207 156.128 71.6422 156.128 73.6424C156.128 75.6426 158.684 77.2642 161.836 77.2642Z" fill="#57B894"/>
<path d="M183.661 85.7149C170.79 79.8889 157.919 79.8889 145.048 85.7149V66.8013C157.639 62.2479 171.07 62.2479 183.661 66.8013V85.7149Z" stroke="#3F3D56" stroke-width="2" stroke-miterlimit="10"/>
<path d="M178.288 81.8035C168.999 77.5986 159.71 77.5986 150.42 81.8035V68.1528C159.507 64.8664 169.201 64.8664 178.288 68.1528V81.8035Z" stroke="#3F3D56" stroke-width="2" stroke-miterlimit="10"/>
<path d="M163.851 75.6545C167.003 75.6545 169.559 74.033 169.559 72.0328C169.559 70.0325 167.003 68.411 163.851 68.411C160.698 68.411 158.143 70.0325 158.143 72.0328C158.143 74.033 160.698 75.6545 163.851 75.6545Z" stroke="#3F3D56" stroke-width="2" stroke-miterlimit="10"/>
<path d="M166.033 99.9458C169.122 99.1903 171.355 96.989 171.022 95.0292C170.688 93.0694 167.913 92.0931 164.825 92.8486C161.736 93.6042 159.503 95.8054 159.836 97.7653C160.17 99.7251 162.944 100.701 166.033 99.9458Z" fill="#57B894"/>
<path d="M188.827 102.995C175.244 100.372 162.633 103.456 150.994 112.25L147.839 93.718C159.415 86.2389 172.575 83.0197 185.671 84.4636L188.827 102.995Z" stroke="#3F3D56" stroke-width="2" stroke-miterlimit="10"/>
<path d="M182.911 100.45C173.107 98.5567 164.005 100.783 155.605 107.13L153.328 93.7546C161.683 88.3566 171.181 86.0332 180.633 87.0753L182.911 100.45Z" stroke="#3F3D56" stroke-width="2" stroke-miterlimit="10"/>
<path d="M167.738 97.8858C170.827 97.1303 173.061 94.929 172.727 92.9692C172.393 91.0094 169.619 90.0331 166.53 90.7886C163.441 91.5442 161.208 93.7454 161.542 95.7053C161.875 97.6651 164.65 98.6414 167.738 97.8858Z" stroke="#3F3D56" stroke-width="2" stroke-miterlimit="10"/>
<path d="M169.939 119.383C170.055 117.388 167.6 115.557 164.455 115.295C161.31 115.033 158.667 116.438 158.551 118.433C158.435 120.429 160.891 122.259 164.035 122.521C167.18 122.783 169.823 121.378 169.939 119.383Z" fill="#57B894"/>
<path d="M185.318 132.767C172.815 125.884 159.976 124.814 146.798 129.555L147.894 110.687C160.718 107.192 174.117 108.309 186.413 113.899L185.318 132.767Z" stroke="#3F3D56" stroke-width="2" stroke-miterlimit="10"/>
<path d="M180.185 128.418C171.162 123.451 161.895 122.678 152.384 126.1L153.175 112.482C162.43 109.96 172.101 110.766 180.976 114.801L180.185 128.418Z" stroke="#3F3D56" stroke-width="2" stroke-miterlimit="10"/>
<path d="M172.042 117.945C172.158 115.949 169.703 114.119 166.558 113.857C163.413 113.595 160.77 115 160.654 116.995C160.538 118.991 162.994 120.821 166.138 121.083C169.283 121.345 171.926 119.94 172.042 117.945Z" stroke="#3F3D56" stroke-width="2" stroke-miterlimit="10"/>
<path d="M139.314 86.154C139.314 86.154 114.637 82.1079 97.0144 94.4856" stroke="#3F3D56" stroke-width="2" stroke-miterlimit="10"/>
<path d="M97.6081 90.3261L98.249 90.5691L97.2471 94.3515L100.468 95.2726L100.312 96.0561L96.3889 94.9329L97.6081 90.3261Z" fill="#3F3D56"/>
</svg>
