<svg width="467" height="352" viewBox="0 0 467 352" fill="none" xmlns="http://www.w3.org/2000/svg">
<g id="accountdetails">
<path id="Vector" d="M165.893 263.747C164.456 263.747 163.005 263.724 161.581 263.681L161.613 262.68C163.659 262.741 165.746 262.758 167.801 262.731L167.815 263.734C167.175 263.742 166.535 263.746 165.893 263.747ZM174.045 263.514L173.984 262.513C176.032 262.396 178.107 262.231 180.15 262.024L180.258 263.021C178.199 263.23 176.109 263.396 174.045 263.514V263.514ZM155.357 263.358C153.291 263.204 151.204 263.004 149.153 262.76L149.279 261.765C151.315 262.006 153.386 262.206 155.435 262.358L155.357 263.358ZM186.441 262.255L186.286 261.264C188.321 260.965 190.372 260.618 192.379 260.231L192.581 261.214C190.558 261.604 188.492 261.954 186.441 262.255V262.255ZM142.985 261.888C140.944 261.553 138.885 261.168 136.863 260.743L137.083 259.763C139.089 260.185 141.133 260.567 143.158 260.899L142.985 261.888ZM198.667 259.902L198.418 258.928C200.416 258.45 202.424 257.921 204.389 257.357L204.683 258.319C202.703 258.887 200.679 259.42 198.667 259.902ZM130.803 259.327C128.802 258.811 126.788 258.244 124.817 257.64L125.129 256.685C127.085 257.283 129.084 257.846 131.069 258.357L130.803 259.327ZM210.617 256.468L210.277 255.521C212.216 254.868 214.165 254.163 216.073 253.423L216.457 254.355C214.536 255.099 212.571 255.81 210.617 256.468ZM118.902 255.683C116.958 254.991 115.002 254.244 113.089 253.464L113.491 252.539C115.39 253.314 117.33 254.055 119.26 254.742L118.902 255.683ZM222.178 251.988L221.749 251.075C223.611 250.256 225.482 249.382 227.311 248.476L227.782 249.369C225.939 250.282 224.054 251.163 222.178 251.988ZM233.257 246.503L232.744 245.633C234.529 244.646 236.311 243.609 238.04 242.55L238.593 243.397C236.851 244.464 235.056 245.51 233.257 246.503V246.503ZM243.779 240.056L243.186 239.235C244.867 238.097 246.545 236.906 248.172 235.694L248.803 236.49C247.164 237.71 245.473 238.911 243.779 240.056V240.056ZM85.9587 238.644C84.2874 237.469 82.6179 236.237 80.9961 234.983L81.6423 234.2C83.2516 235.444 84.9085 236.666 86.5669 237.832L85.9587 238.644ZM253.656 232.705L252.988 231.938C254.555 230.657 256.114 229.323 257.624 227.971L258.326 228.708C256.806 230.07 255.235 231.414 253.656 232.705V232.705ZM76.2122 231.107C74.6556 229.787 73.1093 228.414 71.6162 227.026L72.3331 226.302C73.8151 227.68 75.3496 229.043 76.8942 230.353L76.2122 231.107ZM262.806 224.508L262.068 223.804C263.513 222.386 264.942 220.919 266.314 219.444L267.084 220.115C265.701 221.602 264.261 223.08 262.806 224.508V224.508ZM67.218 222.747C65.7899 221.293 64.3795 219.79 63.026 218.279L63.8082 217.622C65.1513 219.121 66.5508 220.613 67.9683 222.056L67.218 222.747ZM271.152 215.537L270.352 214.9C271.657 213.362 272.941 211.775 274.172 210.182L275.001 210.783C273.761 212.388 272.467 213.988 271.152 215.537ZM59.0492 213.633C57.7667 212.064 56.504 210.443 55.2958 208.817L56.1361 208.231C57.3351 209.845 58.5883 211.453 59.8611 213.011L59.0492 213.633ZM278.622 205.862L277.765 205.299C278.92 203.653 280.051 201.958 281.127 200.261L282.009 200.786C280.925 202.496 279.785 204.203 278.622 205.862ZM51.7743 203.842C50.646 202.167 49.5418 200.443 48.4919 198.718L49.3838 198.208C50.4258 199.921 51.5217 201.632 52.6414 203.294L51.7743 203.842ZM285.153 195.563L284.247 195.079C285.241 193.336 286.207 191.547 287.119 189.76L288.047 190.205C287.129 192.005 286.155 193.808 285.153 195.563H285.153ZM290.683 184.722L289.735 184.32C290.56 182.495 291.352 180.626 292.09 178.765L293.056 179.124C292.313 181 291.514 182.883 290.683 184.722H290.683ZM40.1481 182.558C39.3543 180.713 38.5942 178.825 37.8889 176.947L38.8621 176.604C39.5619 178.469 40.3163 180.342 41.1037 182.172L40.1481 182.558ZM295.161 173.424L294.178 173.109C294.824 171.223 295.434 169.296 295.99 167.38L296.987 167.651C296.426 169.582 295.811 171.525 295.161 173.424V173.424ZM35.8943 171.227C35.2782 169.316 34.6993 167.363 34.1737 165.423L35.1753 165.169C35.6968 167.094 36.2714 169.032 36.8827 170.928L35.8943 171.227ZM298.536 161.803L297.527 161.575C297.991 159.643 298.414 157.669 298.787 155.71L299.805 155.891C299.43 157.866 299.003 159.854 298.536 161.803ZM32.7317 159.549C32.2999 157.591 31.9091 155.595 31.5704 153.617L32.5917 153.453C32.9282 155.416 33.316 157.396 33.7445 159.34L32.7317 159.549ZM300.792 149.93L299.766 149.794C300.044 147.83 300.279 145.827 300.465 143.841L301.496 143.931C301.309 145.933 301.072 147.951 300.792 149.93ZM30.6911 147.641C30.4469 145.655 30.2464 143.634 30.095 141.631L31.1279 141.558C31.2778 143.545 31.4771 145.552 31.7195 147.522L30.6911 147.641ZM301.918 137.908L300.884 137.863C300.976 135.876 301.023 133.861 301.023 131.873H302.058C302.058 133.876 302.011 135.907 301.918 137.908ZM29.7812 135.601C29.7458 134.372 29.7279 133.117 29.7276 131.873C29.7276 131.102 29.7345 130.331 29.7481 129.563L30.7836 129.58C30.7699 130.343 30.7631 131.107 30.7631 131.873C30.7634 133.108 30.7813 134.353 30.8162 135.574L29.7812 135.601ZM31.0293 123.593L29.9959 123.531C30.125 121.527 30.3035 119.503 30.5257 117.515L31.5552 117.623C31.3345 119.596 31.1578 121.604 31.0293 123.593H31.0293ZM300.354 117.475C300.147 115.498 299.863 114.534 299.562 112.566L300.587 112.419C300.889 114.403 301.149 115.917 301.357 117.909L300.354 117.475ZM32.3613 111.683L31.338 111.53C31.6553 109.546 32.0238 107.546 32.4336 105.586L33.4484 105.785C33.0419 107.73 32.6761 109.715 32.3614 111.683H32.3613ZM298.517 106.661C298.122 104.705 297.677 102.736 297.193 100.808L298.199 100.571C298.687 102.513 299.136 104.498 299.534 106.469L298.517 106.661ZM34.814 99.9413L33.8097 99.6975C34.3125 97.7552 34.8694 95.7968 35.465 93.8763L36.4565 94.1647C35.8657 96.0705 35.3131 98.014 34.814 99.9413ZM295.591 95.0207C295.014 93.1112 294.383 91.1905 293.716 89.3111L294.695 88.985C295.367 90.8788 296.003 92.8147 296.585 94.7386L295.591 95.0207ZM38.3785 88.452L37.4017 88.1195C38.0898 86.2238 38.8328 84.319 39.6099 82.458L40.5701 82.8341C39.7988 84.6806 39.0614 86.571 38.3785 88.452V88.452ZM291.57 83.6912C290.814 81.8457 290.006 79.9935 289.165 78.1859L290.11 77.7741C290.957 79.5956 291.772 81.462 292.533 83.3215L291.57 83.6912ZM43.0261 77.3219L42.0851 76.9032C42.95 75.0792 43.8704 73.25 44.821 71.4667L45.7412 71.9265C44.7977 73.6964 43.8843 75.5116 43.0261 77.3219ZM286.502 72.7912C285.575 71.0208 284.594 69.2468 283.584 67.519L284.485 67.0249C285.503 68.7662 286.492 70.5537 287.425 72.3378L286.502 72.7912ZM48.7093 66.6591L47.8119 66.1587C48.8448 64.4216 49.9341 62.6828 51.0497 60.991L51.9224 61.5306C50.8154 63.2097 49.7342 64.9353 48.7093 66.6591ZM280.419 62.3794C279.325 60.6925 278.179 59.012 277.014 57.3844L277.864 56.8129C279.038 58.4531 280.193 60.1463 281.295 61.8462L280.419 62.3794ZM55.3742 56.5512L54.5278 55.9734C55.7215 54.3337 56.9696 52.6995 58.2382 51.1159L59.0562 51.7304C57.7975 53.3022 56.5586 54.924 55.3742 56.5512ZM273.375 52.5437C272.127 50.9609 270.828 49.3873 269.512 47.8669L270.306 47.2228C271.631 48.7549 272.941 50.3402 274.198 51.9351L273.375 52.5437ZM62.9608 47.0788L62.1725 46.4285C63.5121 44.9047 64.9083 43.3879 66.3223 41.9204L67.0792 42.6045C65.6761 44.061 64.2905 45.5665 62.9608 47.0788ZM265.433 43.3642C264.042 41.8979 262.599 40.4446 261.145 39.0451L261.875 38.3336C263.34 39.7441 264.794 41.2082 266.195 42.6855L265.433 43.3642ZM71.4023 38.3179L70.6783 37.601C72.159 36.1982 73.6912 34.8112 75.232 33.4788L75.9217 34.227C74.3925 35.5491 72.8719 36.9256 71.4023 38.3179V38.3179ZM256.658 34.9184C255.134 33.5794 253.56 32.2588 251.981 30.9932L252.641 30.2206C254.232 31.4957 255.818 32.8263 257.354 34.1756L256.658 34.9184ZM80.6276 30.3395L79.9738 29.5619C81.5753 28.2989 83.2304 27.0531 84.8934 25.8593L85.5102 26.6648C83.8596 27.8498 82.2169 29.086 80.6276 30.3395H80.6276ZM90.5589 23.2107L89.981 22.3788C91.695 21.2618 93.4595 20.1682 95.2259 19.1274L95.7638 19.9843C94.0112 21.017 92.26 22.1026 90.5589 23.2107H90.5589ZM101.114 16.9924L100.617 16.1125C102.431 15.1515 104.29 14.2192 106.144 13.341L106.599 14.242C104.759 15.1133 102.914 16.0386 101.114 16.9924ZM226.081 14.669C224.239 13.78 222.351 12.9211 220.471 12.1163L220.89 11.1992C222.784 12.0101 224.687 12.8756 226.543 13.7714L226.081 14.669ZM112.205 11.7386L111.794 10.8185C113.689 10.023 115.627 9.26009 117.555 8.55081L117.923 9.48853C116.009 10.1922 114.086 10.9492 112.205 11.7386ZM214.744 9.81587C212.827 9.09584 210.865 8.40881 208.912 7.7742L209.241 6.82327C211.209 7.46302 213.187 8.15516 215.119 8.88109L214.744 9.81587ZM123.755 7.49093L123.433 6.53804C125.401 5.91323 127.408 5.32489 129.4 4.78992L129.677 5.75604C127.7 6.28709 125.708 6.87079 123.755 7.49093H123.755ZM203.002 5.9999C201.027 5.45465 199.013 4.94686 197.015 4.49074L197.253 3.51484C199.266 3.97439 201.296 4.48609 203.286 5.03525L203.002 5.9999ZM135.675 4.28729L135.444 3.30966C137.462 2.86333 139.517 2.45666 141.552 2.10117L141.736 3.08785C139.716 3.44089 137.677 3.84438 135.675 4.28729ZM190.963 3.2509C188.946 2.88437 186.893 2.55827 184.858 2.28161L185.002 1.28856C187.052 1.56743 189.122 1.89599 191.154 2.2652L190.963 3.2509ZM147.848 2.15968L147.711 1.16566C149.761 0.900747 151.845 0.677948 153.907 0.504116L153.997 1.50304C151.951 1.67589 149.882 1.89671 147.848 2.15968ZM178.713 1.58432C176.674 1.39825 174.598 1.25477 172.543 1.15856L172.593 0.156697C174.664 0.253897 176.755 0.398348 178.811 0.585914L178.713 1.58432ZM160.171 1.1184L160.127 0.116567C162.031 0.0396899 163.97 0.000521908 165.893 3.05176e-05L166.362 0.000761193L166.359 1.0036L165.893 1.00287C163.985 1.00334 162.059 1.04226 160.171 1.1184V1.1184Z" fill="#3F3D56"/>
<path id="Vector_2" d="M467 327.072H87.4978V328.075H467V327.072Z" fill="#3F3D56"/>
<path id="Vector_3" d="M309.613 158.461L314.791 236.181C314.791 236.181 327.216 266.768 326.699 295.85C326.699 295.85 322.039 307.383 325.663 309.388C329.287 311.394 331.358 312.898 329.287 314.403C327.216 315.907 325.663 319.417 327.216 320.42C328.769 321.422 329.287 322.927 328.769 322.927H313.237C313.237 322.927 316.344 315.405 311.684 313.4C307.024 311.394 309.613 306.38 309.613 306.38L274.925 208.102L247.484 298.357C247.484 298.357 252.144 301.366 248.52 302.87C244.896 304.374 243.343 301.366 244.896 304.374C246.449 307.383 244.378 308.887 244.378 309.388C244.378 309.89 228.846 307.884 228.846 307.884C228.846 307.884 236.612 301.366 232.988 299.861C229.364 298.357 227.81 296.853 228.846 295.85C229.881 294.847 234.023 285.32 234.023 285.32C234.023 285.32 236.094 249.218 236.612 247.714C237.13 246.209 236.612 239.19 236.612 235.68C236.612 232.17 236.094 218.13 237.647 214.62C239.201 211.11 240.754 167.988 249.038 162.974C257.322 157.96 309.613 158.461 309.613 158.461Z" fill="#2F2E41"/>
<path id="Vector_4" d="M243.86 306.881C243.86 306.881 254.215 327.439 246.967 329.946C239.718 332.454 230.399 330.448 228.328 333.456C226.257 336.465 203.477 339.975 202.959 332.454C202.441 324.932 227.81 310.893 227.81 310.893L231.115 305.739L243.86 306.881Z" fill="#2F2E41"/>
<path id="Vector_5" d="M327.734 321.924C327.734 321.924 338.089 342.482 330.841 344.989C323.592 347.496 314.273 345.49 312.202 348.499C310.131 351.508 287.35 355.017 286.833 347.496C286.315 339.975 311.684 325.935 311.684 325.935L314.989 320.782L327.734 321.924Z" fill="#2F2E41"/>
<path id="Vector_6" d="M279.843 63.9436C289.279 63.9436 296.929 56.5353 296.929 47.3968C296.929 38.2582 289.279 30.8499 279.843 30.8499C270.407 30.8499 262.758 38.2582 262.758 47.3968C262.758 56.5353 270.407 63.9436 279.843 63.9436Z" fill="#A0616A"/>
<path id="Vector_7" d="M291.493 56.1715L289.422 70.7127L273.889 82.2453L269.748 76.7297V57.6758L291.493 56.1715Z" fill="#A0616A"/>
<path id="Vector_8" d="M267.159 74.7241C267.159 74.7241 283.209 76.2283 291.492 70.7127L308.06 165.481C308.06 165.481 249.555 169.994 246.967 166.985V137.401L257.322 89.2653L267.159 74.7241Z" fill="#3F3D56"/>
<path id="Vector_9" d="M290.067 66.1818L295.634 70.7127C295.634 70.7127 318.415 74.2227 316.862 80.2397L310.649 151.441L312.72 175.509C312.72 175.509 295.116 170.997 281.655 175.509C268.194 180.022 278.889 78.5332 278.889 78.5332C278.889 78.5332 291.23 67.6679 290.067 66.1818Z" fill="#D0CDE1"/>
<path id="Vector_10" d="M269.747 71.6702C269.747 71.6702 253.18 83.2482 251.109 90.7695C249.038 98.2908 242.307 177.515 242.307 177.515C242.307 177.515 245.414 176.011 246.967 178.518C248.52 181.025 272.336 75.6361 269.747 71.6702Z" fill="#D0CDE1"/>
<path id="Vector_11" d="M262.766 46.6758C262.766 46.6758 260.916 43.9889 261.628 41.0952C262.053 39.4524 262.221 37.757 262.126 36.0658C262.126 36.0658 263.62 31.3809 265.114 28.7628C266.607 26.1448 265.896 25.0425 270.591 24.2157C275.286 23.389 273.366 17.4639 285.744 23.8712C286.161 24.4359 286.742 24.8682 287.413 25.1134C288.084 25.3586 288.815 25.4059 289.514 25.2491C292.075 24.7669 293 28.2117 293 28.2117C293 28.2117 294.707 27.2471 295.347 28.625C295.988 30.003 300.553 27.798 300.553 37.099C300.553 46.4 295.358 54.7081 295.358 54.7081C295.358 54.7081 295.739 39.0628 287.273 37.4782C278.808 35.8936 269.702 31.2775 267.497 37.2026C266.306 40.5281 264.719 43.7074 262.766 46.6758V46.6758Z" fill="#2F2E41"/>
<path id="Vector_12" d="M295.543 50.3957C296.466 50.3957 297.213 49.4303 297.213 48.2395C297.213 47.0486 296.466 46.0833 295.543 46.0833C294.621 46.0833 293.874 47.0486 293.874 48.2395C293.874 49.4303 294.621 50.3957 295.543 50.3957Z" fill="#A0616A"/>
<path id="Vector_13" d="M225.372 203.3C221.275 200.914 216.335 201.097 214.458 201.279C215.173 202.97 217.318 207.283 221.415 209.67C225.522 212.062 230.455 211.874 232.33 211.693C231.616 210.003 229.469 205.688 225.372 203.3Z" fill="#D0CDE1"/>
<path id="Vector_14" d="M244.623 250.646H219.018C217.49 250.646 216.025 251.234 214.944 252.28C213.864 253.327 213.257 254.746 213.257 256.226C213.257 257.706 213.864 259.125 214.944 260.171C216.025 261.218 217.49 261.805 219.018 261.805H244.623C246.15 261.804 247.614 261.216 248.693 260.169C249.773 259.123 250.379 257.705 250.379 256.226C250.379 254.747 249.773 253.329 248.693 252.282C247.614 251.236 246.15 250.648 244.623 250.646Z" fill="#D0CDE1"/>
<path id="Vector_15" d="M360.573 191.751H217.012C215.342 191.751 213.688 192.069 212.145 192.688C210.602 193.307 209.2 194.214 208.02 195.358C206.839 196.501 205.902 197.859 205.263 199.353C204.624 200.848 204.295 202.449 204.295 204.067V271.808C204.295 275.074 205.635 278.207 208.02 280.516C210.404 282.826 213.639 284.124 217.012 284.124H360.573C362.243 284.124 363.896 283.805 365.439 283.186C366.982 282.567 368.384 281.66 369.565 280.516C370.746 279.373 371.682 278.015 372.322 276.521C372.961 275.027 373.29 273.425 373.29 271.808V204.067C373.29 202.449 372.961 200.848 372.322 199.353C371.682 197.859 370.746 196.502 369.565 195.358C368.384 194.214 366.982 193.307 365.439 192.688C363.896 192.069 362.243 191.751 360.573 191.751ZM213.46 200.152C213.743 200.102 220.466 198.994 226.032 202.238C231.598 205.482 233.737 211.753 233.825 212.018L234.05 212.695L233.328 212.819C232.297 212.974 231.255 213.049 230.212 213.04C227.684 213.04 224.021 212.635 220.755 210.732C215.189 207.489 213.051 201.218 212.963 200.952L212.738 200.276L213.46 200.152ZM244.623 263.045H219.018C217.15 263.045 215.359 262.327 214.039 261.048C212.718 259.769 211.976 258.034 211.976 256.226C211.976 254.417 212.718 252.683 214.039 251.404C215.359 250.125 217.15 249.406 219.018 249.406H244.623C246.491 249.406 248.282 250.125 249.602 251.404C250.923 252.683 251.665 254.417 251.665 256.226C251.665 258.034 250.923 259.769 249.602 261.048C248.282 262.327 246.491 263.045 244.623 263.045V263.045ZM361.127 261.805C361.121 263.777 360.31 265.666 358.871 267.059C357.431 268.453 355.481 269.239 353.445 269.245H334.242C332.206 269.239 330.256 268.453 328.816 267.059C327.377 265.666 326.566 263.777 326.56 261.805V250.646C326.566 248.675 327.377 246.786 328.816 245.392C330.256 243.998 332.206 243.213 334.242 243.207H353.446C355.481 243.213 357.431 243.998 358.871 245.392C360.31 246.786 361.121 248.675 361.127 250.646L361.127 261.805Z" fill="#D0CDE1"/>
<path id="Vector_16" d="M340.323 259.636H332.001C331.407 259.636 330.837 259.864 330.417 260.271C329.997 260.678 329.761 261.23 329.761 261.805C329.761 262.381 329.997 262.933 330.417 263.34C330.837 263.747 331.407 263.975 332.001 263.975H340.323C340.917 263.975 341.487 263.747 341.907 263.34C342.327 262.933 342.563 262.381 342.563 261.805C342.563 261.23 342.327 260.678 341.907 260.271C341.487 259.864 340.917 259.636 340.323 259.636V259.636ZM340.323 262.735H332.001C331.875 262.736 331.75 262.712 331.633 262.665C331.516 262.619 331.41 262.55 331.321 262.464C331.231 262.377 331.16 262.275 331.112 262.162C331.064 262.049 331.039 261.928 331.039 261.805C331.039 261.683 331.064 261.562 331.112 261.449C331.16 261.336 331.231 261.233 331.321 261.147C331.41 261.061 331.516 260.992 331.633 260.946C331.75 260.899 331.875 260.875 332.001 260.875H340.323C340.449 260.875 340.574 260.899 340.691 260.946C340.808 260.992 340.914 261.061 341.003 261.147C341.093 261.233 341.163 261.336 341.212 261.449C341.26 261.562 341.285 261.683 341.285 261.805C341.285 261.928 341.26 262.049 341.212 262.162C341.163 262.275 341.093 262.377 341.003 262.464C340.914 262.55 340.808 262.619 340.691 262.665C340.574 262.712 340.449 262.736 340.323 262.735V262.735Z" fill="#D0CDE1"/>
<path id="Vector_17" d="M355.686 259.636H347.364C347.07 259.635 346.778 259.691 346.506 259.8C346.234 259.909 345.986 260.068 345.778 260.27C345.569 260.471 345.404 260.711 345.291 260.974C345.178 261.238 345.12 261.52 345.12 261.805C345.12 262.091 345.178 262.373 345.291 262.637C345.404 262.9 345.569 263.139 345.778 263.341C345.986 263.542 346.234 263.702 346.506 263.811C346.778 263.92 347.07 263.976 347.364 263.975H355.686C356.28 263.975 356.85 263.747 357.27 263.34C357.69 262.933 357.926 262.381 357.926 261.805C357.926 261.23 357.69 260.678 357.27 260.271C356.85 259.864 356.28 259.636 355.686 259.636ZM355.686 262.735H347.364C347.238 262.736 347.113 262.712 346.996 262.665C346.879 262.619 346.773 262.55 346.684 262.464C346.594 262.377 346.524 262.275 346.475 262.162C346.427 262.049 346.402 261.928 346.402 261.805C346.402 261.683 346.427 261.562 346.475 261.449C346.524 261.336 346.594 261.233 346.684 261.147C346.773 261.061 346.879 260.992 346.996 260.946C347.113 260.899 347.238 260.875 347.364 260.875H355.686C355.94 260.876 356.184 260.974 356.363 261.149C356.543 261.323 356.644 261.559 356.644 261.805C356.644 262.052 356.543 262.288 356.363 262.462C356.184 262.637 355.94 262.735 355.686 262.735V262.735Z" fill="#D0CDE1"/>
<path id="Vector_18" d="M340.323 254.056H332.001C331.407 254.056 330.837 254.285 330.417 254.691C329.997 255.098 329.761 255.65 329.761 256.226C329.761 256.801 329.997 257.353 330.417 257.76C330.837 258.167 331.407 258.396 332.001 258.396H340.323C340.617 258.396 340.909 258.34 341.181 258.231C341.453 258.123 341.701 257.963 341.909 257.761C342.118 257.56 342.283 257.32 342.396 257.057C342.509 256.793 342.567 256.511 342.567 256.226C342.567 255.941 342.509 255.658 342.396 255.395C342.283 255.131 342.118 254.892 341.909 254.69C341.701 254.489 341.453 254.329 341.181 254.22C340.909 254.111 340.617 254.055 340.323 254.056V254.056ZM340.323 257.156H332.001C331.746 257.156 331.502 257.058 331.322 256.883C331.142 256.709 331.041 256.472 331.041 256.226C331.041 255.979 331.142 255.743 331.322 255.568C331.502 255.394 331.746 255.296 332.001 255.296H340.323C340.577 255.296 340.822 255.394 341.002 255.568C341.182 255.743 341.283 255.979 341.283 256.226C341.283 256.472 341.182 256.709 341.002 256.883C340.822 257.058 340.577 257.156 340.323 257.156V257.156Z" fill="#D0CDE1"/>
<path id="Vector_19" d="M355.686 254.056H347.364C347.07 254.055 346.778 254.111 346.506 254.22C346.234 254.329 345.986 254.489 345.778 254.69C345.569 254.892 345.404 255.131 345.291 255.395C345.178 255.658 345.12 255.941 345.12 256.226C345.12 256.511 345.178 256.793 345.291 257.057C345.404 257.32 345.569 257.56 345.778 257.761C345.986 257.963 346.234 258.123 346.506 258.231C346.778 258.34 347.07 258.396 347.364 258.396H355.686C356.28 258.396 356.85 258.167 357.27 257.76C357.69 257.353 357.926 256.801 357.926 256.226C357.926 255.65 357.69 255.098 357.27 254.691C356.85 254.285 356.28 254.056 355.686 254.056ZM355.686 257.156H347.364C347.11 257.156 346.865 257.058 346.685 256.883C346.505 256.709 346.404 256.472 346.404 256.226C346.404 255.979 346.505 255.743 346.685 255.568C346.865 255.394 347.11 255.296 347.364 255.296H355.686C355.941 255.296 356.185 255.394 356.365 255.568C356.545 255.743 356.646 255.979 356.646 256.226C356.646 256.472 356.545 256.709 356.365 256.883C356.185 257.058 355.941 257.156 355.686 257.156Z" fill="#D0CDE1"/>
<path id="Vector_20" d="M340.323 248.476H332.001C331.407 248.476 330.837 248.705 330.417 249.112C329.997 249.519 329.761 250.071 329.761 250.646C329.761 251.222 329.997 251.774 330.417 252.181C330.837 252.587 331.407 252.816 332.001 252.816H340.323C340.917 252.816 341.487 252.587 341.907 252.181C342.327 251.774 342.563 251.222 342.563 250.646C342.563 250.071 342.327 249.519 341.907 249.112C341.487 248.705 340.917 248.476 340.323 248.476V248.476ZM340.323 251.576H332.001C331.746 251.576 331.502 251.478 331.322 251.304C331.142 251.129 331.041 250.893 331.041 250.646C331.041 250.4 331.142 250.163 331.322 249.989C331.502 249.814 331.746 249.716 332.001 249.716H340.323C340.577 249.716 340.822 249.814 341.002 249.989C341.182 250.163 341.283 250.4 341.283 250.646C341.283 250.893 341.182 251.129 341.002 251.304C340.822 251.478 340.577 251.576 340.323 251.576V251.576Z" fill="#D0CDE1"/>
<path id="Vector_21" d="M355.686 248.476H347.364C347.07 248.476 346.778 248.532 346.506 248.641C346.234 248.749 345.986 248.909 345.778 249.111C345.569 249.312 345.404 249.552 345.291 249.815C345.178 250.079 345.12 250.361 345.12 250.646C345.12 250.931 345.178 251.214 345.291 251.477C345.404 251.741 345.569 251.98 345.778 252.182C345.986 252.383 346.234 252.543 346.506 252.652C346.778 252.761 347.07 252.816 347.364 252.816H355.686C356.28 252.815 356.849 252.586 357.268 252.179C357.687 251.773 357.923 251.221 357.923 250.646C357.923 250.071 357.687 249.52 357.268 249.113C356.849 248.706 356.28 248.477 355.686 248.476V248.476ZM355.686 251.576H347.364C347.11 251.576 346.865 251.478 346.685 251.304C346.505 251.129 346.404 250.893 346.404 250.646C346.404 250.4 346.505 250.163 346.685 249.989C346.865 249.814 347.11 249.716 347.364 249.716H355.686C355.941 249.716 356.185 249.814 356.365 249.989C356.545 250.163 356.646 250.4 356.646 250.646C356.646 250.893 356.545 251.129 356.365 251.304C356.185 251.478 355.941 251.576 355.686 251.576Z" fill="#D0CDE1"/>
<path id="Vector_22" d="M315.308 176.512L311.597 188.241C311.597 188.241 310.649 210.107 298.223 207.099C285.797 204.09 301.847 178.518 301.847 178.518L305.471 173.002L315.308 176.512Z" fill="#A0616A"/>
<path id="Vector_23" d="M244.896 176.512L241.185 188.241C241.185 188.241 240.236 210.107 227.81 207.099C215.385 204.09 231.435 178.518 231.435 178.518L235.059 173.002L244.896 176.512Z" fill="#A0616A"/>
<path id="Vector_24" d="M312.72 76.7298C312.72 76.7298 321.003 74.7241 323.592 88.2624C326.181 101.801 329.287 140.41 329.287 140.41L316.862 181.025C316.862 181.025 304.436 174.507 301.847 175.509L311.625 140.249L303.4 104.308C303.4 104.308 310.649 76.7298 312.72 76.7298Z" fill="#D0CDE1"/>
<path id="Vector_25" opacity="0.15" d="M300.675 104.994L311.548 140.093L300.675 175.694L306.888 140.093L300.675 104.994Z" fill="black"/>
<path id="Vector_26" d="M251.109 104.308L232.47 175.509C232.47 175.509 242.302 178.652 245.926 181.159L251.109 104.308Z" fill="#D0CDE1"/>
<g id="money">
<path id="Vector_27" d="M55.5856 283.244C84.1795 283.244 107.359 260.795 107.359 233.102C107.359 205.409 84.1795 182.96 55.5856 182.96C26.9916 182.96 3.8117 205.409 3.8117 233.102C3.8117 260.795 26.9916 283.244 55.5856 283.244Z" fill="#3F3D56"/>
<path id="Vector_28" d="M53.452 258.548V252.272C50.1761 252.21 46.7871 251.091 44.8104 249.537L46.1658 245.374C48.515 247.079 51.3638 248.015 54.2992 248.046C58.3095 248.046 61.0206 245.498 61.0206 241.956C61.0206 238.538 58.8177 236.426 54.6381 234.561C48.877 232.076 45.3186 229.217 45.3186 223.811C45.3186 218.653 48.6511 214.738 53.8475 213.806V207.53H57.3492V213.557C59.9605 213.592 62.5075 214.346 64.692 215.732L63.2797 219.834C61.1847 218.445 58.702 217.708 56.1631 217.721C51.8142 217.721 50.1761 220.579 50.1761 223.065C50.1761 226.296 52.2659 227.912 57.1799 230.149C62.9974 232.759 65.9346 235.99 65.9346 241.521C65.9346 246.43 62.828 251.029 57.0103 252.085V258.548H53.452Z" fill="#6C63FF"/>
</g>
<path id="Vector_29" opacity="0.1" d="M55.5856 276.224C80.1763 276.224 100.111 256.918 100.111 233.102C100.111 209.286 80.1763 189.98 55.5856 189.98C30.9948 189.98 11.06 209.286 11.06 233.102C11.06 256.918 30.9948 276.224 55.5856 276.224Z" fill="black"/>
<path id="Vector_30" d="M110.278 335.095C73.721 340.375 36.5573 340.375 3.8147e-06 335.095V323.061C36.5961 327.807 73.6823 327.807 110.278 323.061V335.095Z" fill="#3F3D56"/>
<path id="Vector_31" d="M110.278 316.542C73.721 321.822 36.5573 321.822 3.8147e-06 316.542V304.508C36.5961 309.255 73.6823 309.255 110.278 304.508V316.542Z" fill="#3F3D56"/>
<path id="Vector_32" d="M110.278 297.99C73.721 303.27 36.5573 303.27 3.8147e-06 297.99V285.956C36.5961 290.702 73.6823 290.702 110.278 285.956V297.99Z" fill="#3F3D56"/>
</g>
</svg>
