<svg width="741" height="598" viewBox="0 0 550 417" fill="none" xmlns="http://www.w3.org/2000/svg">
<g id="undraw_Savings_re_eq4w (1) 1">
<path id="Vector" d="M314.527 416.674C309.537 416.686 304.746 414.836 301.204 411.531C297.663 408.225 295.66 403.734 295.636 399.042V386.297C281.446 387.791 232.857 387.445 218.929 385.34V398.532C218.892 403.22 216.885 407.705 213.346 411.008C209.808 414.311 205.024 416.164 200.038 416.164C195.052 416.164 190.269 414.311 186.73 411.008C183.191 407.705 181.184 403.22 181.147 398.532V372.631C162.283 362.776 146.557 348.366 135.592 330.888C124.627 313.41 118.82 293.496 118.772 273.203C118.772 238.408 135.541 205.948 164.78 184.148C183.791 169.926 206.889 161.373 231.108 159.587C234.395 159.345 237.702 159.222 240.938 159.222C252.339 159.222 303.773 160.878 316.679 164.369L346.105 136.912C346.538 136.502 347.09 136.224 347.692 136.111C348.293 135.998 348.917 136.057 349.484 136.278C350.054 136.492 350.543 136.863 350.885 137.342C351.228 137.821 351.408 138.387 351.403 138.965V143.33L357.133 137.994C357.564 137.584 358.116 137.305 358.718 137.192C359.319 137.079 359.943 137.137 360.509 137.36C361.08 137.573 361.569 137.944 361.912 138.423C362.255 138.903 362.435 139.469 362.43 140.047V188.832C377.196 201.35 388.45 217.1 395.195 234.686C401.94 252.272 403.967 271.151 401.098 289.65C398.229 308.149 390.551 325.696 378.745 340.738C366.939 355.779 351.37 367.85 333.418 375.88V399.042C333.393 403.734 331.391 408.225 327.849 411.531C324.308 414.836 319.516 416.686 314.527 416.674ZM297.121 384.713V399.042C297.159 403.36 299.009 407.489 302.269 410.53C305.529 413.57 309.935 415.277 314.527 415.277C319.119 415.277 323.524 413.57 326.785 410.53C330.045 407.489 331.895 403.36 331.932 399.042V374.998L332.356 374.809C352.501 365.82 369.601 351.757 381.76 334.181C397.253 311.753 403.697 284.85 399.924 258.342C396.151 231.833 382.411 207.471 361.191 189.664L360.945 189.455V140.047C360.95 139.747 360.857 139.452 360.679 139.203C360.501 138.954 360.246 138.762 359.948 138.653C359.653 138.534 359.325 138.502 359.01 138.561C358.694 138.62 358.405 138.767 358.18 138.984L349.917 146.679V138.965C349.923 138.664 349.83 138.37 349.652 138.121C349.474 137.871 349.219 137.68 348.921 137.571C348.625 137.452 348.297 137.42 347.981 137.48C347.665 137.539 347.375 137.687 347.15 137.904L317.094 165.949L316.666 165.824C304.67 162.293 252.425 160.619 240.938 160.619C237.741 160.619 234.473 160.74 231.224 160.98C207.3 162.743 184.483 171.193 165.703 185.242C136.821 206.776 120.257 238.837 120.257 273.203C120.306 293.317 126.081 313.051 136.983 330.356C147.884 347.661 163.514 361.905 182.249 371.609L182.632 371.809V398.532C182.67 402.85 184.521 406.978 187.781 410.018C191.041 413.058 195.447 414.764 200.038 414.764C204.629 414.764 209.035 413.058 212.295 410.018C215.555 406.978 217.406 402.85 217.444 398.532V383.669L218.324 383.824C230.84 386.039 283.545 386.388 296.282 384.817L297.121 384.713Z" fill="#3F3D56"/>
<path id="Vector_2" d="M213.857 83.1783L131.625 106.417C129.01 107.159 126.815 108.848 125.522 111.111C124.229 113.374 123.945 116.027 124.731 118.488C125.517 120.948 127.31 123.014 129.715 124.233C132.12 125.451 134.941 125.721 137.559 124.985L209.52 104.644L211.028 104.218C211.333 96.9126 213.441 89.7743 217.184 83.3668C216.714 83.1681 216.212 83.0453 215.699 83.0037C215.079 82.9473 214.453 83.0066 213.857 83.1783Z" fill="#EAE9F4"/>
<path id="Vector_3" d="M136.137 129.939C135.045 129.937 133.982 129.612 133.097 129.01C132.213 128.409 131.552 127.561 131.208 126.587L126.065 111.995C125.851 111.386 125.766 110.743 125.815 110.103C125.865 109.462 126.048 108.837 126.354 108.264C126.661 107.69 127.084 107.179 127.601 106.759C128.117 106.339 128.717 106.02 129.365 105.818L196.293 84.9598C196.941 84.7578 197.625 84.6778 198.306 84.7244C198.987 84.771 199.651 84.9432 200.261 85.2312C200.871 85.5192 201.415 85.9174 201.861 86.403C202.307 86.8887 202.648 87.4522 202.862 88.0615L208.005 102.653C208.432 103.853 208.347 105.163 207.765 106.304C207.184 107.446 206.153 108.33 204.891 108.769C204.829 108.791 204.767 108.812 204.704 108.831L137.777 129.688C137.248 129.854 136.694 129.939 136.137 129.939Z" fill="#2F2E41"/>
<path id="Vector_4" d="M261.478 57.2649C247.97 57.2698 234.994 62.2173 225.296 71.0601C215.599 79.903 209.941 91.9473 209.52 104.644C209.506 105.139 209.498 105.642 209.498 106.145C209.498 115.813 212.547 125.263 218.258 133.301C223.97 141.34 232.088 147.605 241.586 151.304C251.084 155.004 261.536 155.972 271.619 154.086C281.702 152.2 290.964 147.545 298.233 140.709C305.502 133.872 310.453 125.163 312.459 115.681C314.464 106.199 313.435 96.3711 309.501 87.4394C305.567 78.5077 298.904 70.8737 290.356 65.5027C281.808 60.1317 271.758 57.2649 261.478 57.2649ZM261.478 153.629C248.09 153.615 235.255 148.609 225.788 139.706C216.322 130.804 210.997 118.734 210.983 106.145C210.983 105.496 210.998 104.853 211.028 104.218C211.43 94.9164 214.731 85.9314 220.52 78.38C226.309 70.8286 234.33 65.0439 243.587 61.7453C252.844 58.4466 262.928 57.7795 272.585 59.8269C282.242 61.8744 291.046 66.546 297.902 73.2609C304.758 79.9758 309.364 88.4378 311.147 97.5946C312.93 106.751 311.811 116.199 307.93 124.763C304.048 133.326 297.576 140.628 289.317 145.761C281.058 150.893 271.377 153.629 261.478 153.629Z" fill="#3F3D56"/>
<path id="Vector_5" d="M274.525 108.882C273.463 107.569 272.066 106.529 270.463 105.859C268.486 105.075 266.445 104.445 264.359 103.973V92.7588C267.565 93.2134 270.572 94.5027 273.04 96.4807L275.46 91.6276C274.068 90.4612 272.47 89.5325 270.737 88.8834C268.818 88.1523 266.802 87.6661 264.745 87.4379V81.7538H259.139V87.4938C256.974 87.7224 254.886 88.3818 253.013 89.428C251.321 90.3697 249.896 91.6827 248.862 93.2546C247.874 94.7887 247.362 96.552 247.384 98.3451C247.288 100.288 247.886 102.206 249.084 103.792C250.187 105.165 251.644 106.251 253.317 106.948C255.325 107.755 257.402 108.402 259.525 108.882V119.629C255.742 119.361 252.137 118.008 249.196 115.753L246.775 120.614C248.42 121.892 250.289 122.889 252.3 123.56C254.503 124.302 256.804 124.753 259.139 124.901V130.536H264.745V124.796C267.859 124.476 270.779 123.217 273.069 121.207C274.078 120.298 274.874 119.201 275.409 117.987C275.943 116.773 276.203 115.468 276.173 114.154C276.266 112.273 275.686 110.417 274.525 108.882ZM259.525 102.786C258.159 102.397 256.89 101.756 255.79 100.901C255.354 100.536 255.009 100.085 254.781 99.5808C254.552 99.0761 254.446 98.5301 254.468 97.982C254.428 96.7383 254.914 95.5303 255.819 94.6233C256.824 93.6717 258.119 93.0393 259.525 92.8147V102.786ZM267.879 117.646C266.932 118.559 265.698 119.164 264.359 119.371V110.125C265.639 110.448 266.836 111.011 267.879 111.78C268.274 112.098 268.588 112.495 268.798 112.942C269.007 113.389 269.107 113.875 269.089 114.364C269.141 115.562 268.708 116.735 267.879 117.646Z" fill="#980F49"/>
<path id="Vector_6" d="M138.523 189.077C137.375 189.075 136.26 188.717 135.35 188.058C134.441 187.4 133.788 186.478 133.492 185.434L130.693 175.47C130.342 174.217 130.534 172.885 131.227 171.766C131.92 170.647 133.056 169.831 134.387 169.499L222.708 147.552C224.041 147.225 225.457 147.407 226.647 148.06C227.837 148.712 228.704 149.781 229.058 151.033L231.43 159.475L230.985 159.507C208.334 161.164 186.66 168.887 168.53 181.763L168.401 181.821L139.842 188.916C139.411 189.022 138.968 189.077 138.523 189.077Z" fill="#2F2E41"/>
<path id="Vector_7" d="M123.895 238.296C113.535 236.857 103.626 233.334 94.8447 227.967C90.4941 225.31 86.4666 222.213 82.8344 218.73C79.2494 215.291 75.8198 211.383 74.0441 206.804C72.3356 202.567 72.4237 197.875 74.2901 193.697C76.131 189.545 79.6476 186.249 84.0687 184.532C88.5164 182.864 93.8901 182.686 98.2186 184.512C100.281 185.362 102.066 186.714 103.39 188.427C104.006 189.217 104.461 190.106 104.734 191.051C104.988 191.907 105.011 192.809 104.801 193.676C104.548 194.541 104.1 195.345 103.489 196.035C102.877 196.724 102.116 197.282 101.257 197.672C99.3646 198.585 97.3147 199.173 95.2031 199.408C93.0792 199.681 90.0284 199.929 88.321 198.325C87.9695 198.008 87.6931 197.625 87.5097 197.201C87.3813 196.876 87.3374 196.527 87.3816 196.182C87.3567 196.334 87.4846 195.853 87.4774 195.872C87.4504 195.943 87.3334 196.116 87.4996 195.85C87.5516 195.762 87.6094 195.677 87.6727 195.596C87.6163 195.665 87.4924 195.78 87.7137 195.583C87.8966 195.395 88.1317 195.258 88.3926 195.189C88.4954 195.161 88.5997 195.138 88.7027 195.112C88.9647 195.045 88.4416 195.116 88.7096 195.107C88.813 195.104 88.9177 195.107 89.0208 195.102C89.2836 195.091 88.7614 195.035 89.0133 195.095C89.1112 195.118 89.2081 195.14 89.3044 195.169C89.5139 195.231 89.1561 195.024 89.298 195.179C89.4644 195.36 89.1234 195.003 89.3125 195.178C89.4065 195.265 89.4952 195.357 89.578 195.453C89.9059 195.758 90.3481 195.928 90.8088 195.928C91.2696 195.928 91.7118 195.758 92.0396 195.453C92.3564 195.142 92.5331 194.727 92.5331 194.296C92.5331 193.865 92.3564 193.45 92.0396 193.139C90.3233 191.138 86.933 191.632 85.1967 193.323C82.9824 195.48 83.8592 198.898 86.0132 200.779C88.4515 202.91 91.905 203.058 95.0415 202.701C97.6923 202.462 100.275 201.775 102.667 200.674C105.043 199.576 106.902 197.688 107.883 195.375C108.326 194.141 108.485 192.833 108.35 191.536C108.214 190.24 107.788 188.985 107.098 187.856C104.329 182.96 98.5949 180.45 92.927 180.015C90.0089 179.8 87.0744 180.131 84.2934 180.99C81.5123 181.849 78.94 183.217 76.7251 185.017C72.4561 188.631 69.8274 193.649 69.3825 199.035C68.8877 204.618 71.1914 210.041 74.5502 214.547C78.0664 219.125 82.2623 223.206 87.01 226.664C96.2916 233.633 107.179 238.461 118.801 240.763C120.183 241.032 121.573 241.262 122.97 241.453C123.415 241.554 123.884 241.492 124.281 241.28C124.679 241.068 124.976 240.721 125.111 240.31C125.23 239.891 125.17 239.445 124.942 239.069C124.715 238.692 124.339 238.414 123.895 238.296L123.895 238.296Z" fill="#3F3D56"/>
<path id="Vector_8" d="M263.177 173.126C261.537 173.126 223 173.069 223 168.063C223 163.058 261.537 163 263.177 163C264.818 163 303.354 163.058 303.354 168.063C303.354 173.069 264.818 173.126 263.177 173.126ZM224.507 168.063C225.561 169.581 239.727 171.73 263.177 171.73C286.627 171.73 300.792 169.581 301.847 168.063C300.793 166.546 286.627 164.397 263.177 164.397C239.727 164.397 225.561 166.546 224.507 168.063V168.063Z" fill="#3F3D56"/>
<path id="Vector_9" d="M389.604 308.084C398.135 307.861 408.752 307.583 416.931 301.964C419.367 300.223 421.368 298.001 422.795 295.456C424.221 292.91 425.038 290.102 425.189 287.228C425.356 282.791 423.651 278.918 420.389 276.325C416.117 272.93 409.878 272.134 403.156 273.992L410.121 226.126L405.008 225.467L396.819 281.74L401.089 279.897C406.039 277.762 412.835 276.676 417.057 280.031C418.094 280.909 418.902 281.999 419.418 283.217C419.934 284.436 420.144 285.75 420.032 287.058C419.907 289.196 419.293 291.285 418.233 293.181C417.172 295.077 415.69 296.736 413.887 298.045C407.522 302.417 399.059 302.981 389.461 303.233L389.604 308.084Z" fill="#3F3D56"/>
<path id="Vector_10" d="M375.467 230.254H347.671V235.107H375.467V230.254Z" fill="#3F3D56"/>
<path id="Vector_11" d="M151.101 211.398C149.864 211.394 148.668 210.976 147.729 210.219C146.79 209.462 146.168 208.415 145.974 207.266L144.278 197.084C144.066 195.803 144.403 194.496 145.215 193.449C146.027 192.401 147.247 191.7 148.609 191.498L238.854 178.201C240.215 178.001 241.605 178.318 242.719 179.082C243.833 179.845 244.579 180.993 244.793 182.273L246.49 192.455C246.702 193.736 246.365 195.043 245.553 196.091C244.741 197.138 243.521 197.839 242.159 198.041L151.914 211.338C151.645 211.378 151.373 211.398 151.101 211.398Z" fill="#2F2E41"/>
<path id="Vector_12" d="M113.753 92.0725C134.669 92.0725 151.624 76.1282 151.624 56.4599C151.624 36.7915 134.669 20.8472 113.753 20.8472C92.8377 20.8472 75.8823 36.7915 75.8823 56.4599C75.8823 76.1282 92.8377 92.0725 113.753 92.0725Z" fill="#92162D"/>
<path id="Vector_13" d="M135.195 65.6744C136.405 65.2763 137.511 64.6391 138.438 63.8057C139.051 63.2115 139.518 62.4984 139.808 61.7164C140.097 60.9344 140.201 60.1024 140.112 59.2787C140.06 58.6916 139.865 58.1236 139.542 57.6192C139.218 57.1148 138.775 56.6876 138.247 56.3709C136.876 55.5784 135.065 55.6083 133.237 56.4054L133.025 42.504L131.541 42.5238L131.789 58.8664L132.919 58.1692C134.23 57.3621 136.113 56.7768 137.468 57.5606C137.804 57.7681 138.083 58.0455 138.286 58.3712C138.488 58.697 138.608 59.0623 138.636 59.4387C138.699 60.0523 138.62 60.6715 138.405 61.2539C138.19 61.8363 137.845 62.3684 137.392 62.814C135.782 64.3161 133.399 64.8194 130.679 65.2797L130.943 66.654C132.388 66.4476 133.811 66.1197 135.195 65.6744Z" fill="#2F2E41"/>
<path id="Vector_14" d="M148.318 41.5282L140.409 42.6545L140.632 44.0351L148.54 42.9089L148.318 41.5282Z" fill="#2F2E41"/>
<path id="Vector_15" d="M123.355 45.0825L115.447 46.2087L115.669 47.5894L123.577 46.4631L123.355 45.0825Z" fill="#2F2E41"/>
<path id="Vector_16" d="M138.78 210.775C137.418 210.773 136.089 210.38 134.97 209.65C133.851 208.919 132.996 207.886 132.517 206.687L106.406 140.93C103.214 132.865 103.555 123.939 107.353 116.111C111.152 108.282 118.097 102.19 126.666 99.1707L147.897 91.7156C148.718 91.4254 149.592 91.2907 150.469 91.3193C151.345 91.3479 152.207 91.5393 153.005 91.8823C153.8 92.2166 154.517 92.6967 155.113 93.2945C155.709 93.8922 156.173 94.5958 156.476 95.3639L204.845 181.242C205.159 182.016 205.307 182.842 205.28 183.67C205.254 184.498 205.054 185.314 204.691 186.069C204.328 186.824 203.81 187.505 203.166 188.071C202.523 188.637 201.767 189.078 200.941 189.369L141.115 210.376C140.369 210.639 139.578 210.775 138.78 210.775Z" fill="#2F2E41"/>
<path id="Vector_17" d="M141.456 93.9773L189.447 154.327L156.974 94.6107C156.705 93.9139 156.294 93.2737 155.762 92.7265C155.231 92.1793 154.59 91.736 153.877 91.4217C153.163 91.1075 152.39 90.9285 151.603 90.8951C150.816 90.8616 150.03 90.9743 149.289 91.2268L141.456 93.9773Z" fill="#E6E6E6"/>
<path id="Vector_18" d="M217.444 139.809L131.756 134.619C130.405 134.537 129.085 134.206 127.87 133.644C126.655 133.083 125.57 132.302 124.677 131.346C123.783 130.39 123.099 129.278 122.662 128.073C122.226 126.868 122.046 125.594 122.133 124.324C122.22 123.054 122.572 121.813 123.169 120.67C123.767 119.528 124.597 118.508 125.614 117.668C126.63 116.827 127.813 116.184 129.094 115.773C130.375 115.363 131.73 115.194 133.08 115.275L218.769 120.465C219.402 120.504 220.02 120.659 220.589 120.922C221.158 121.185 221.666 121.551 222.084 121.998C222.503 122.446 222.823 122.967 223.028 123.531C223.232 124.095 223.316 124.692 223.276 125.287L222.571 135.572C222.489 136.773 221.902 137.894 220.941 138.689C219.979 139.484 218.722 139.887 217.444 139.809Z" fill="#F5F4FF"/>
<path id="Vector_19" d="M194.547 143.137C194.434 143.137 194.32 143.133 194.207 143.127H194.206L123.844 138.865C123.163 138.823 122.497 138.657 121.884 138.373C121.271 138.09 120.724 137.696 120.274 137.214C119.823 136.732 119.478 136.171 119.257 135.563C119.037 134.956 118.947 134.313 118.991 133.673L120.194 116.105C120.238 115.465 120.415 114.838 120.717 114.262C121.018 113.686 121.437 113.172 121.949 112.748C122.462 112.324 123.059 112 123.705 111.793C124.351 111.586 125.034 111.5 125.715 111.542L196.078 115.803C197.453 115.888 198.736 116.482 199.646 117.456C200.556 118.429 201.018 119.702 200.931 120.995L199.728 138.563C199.662 139.505 199.308 140.408 198.709 141.165C198.11 141.922 197.292 142.5 196.352 142.83C195.775 143.033 195.163 143.137 194.547 143.137Z" fill="#2F2E41"/>
<path id="Vector_20" d="M113.319 32.778C118.301 28.7487 125.143 32.3532 130.856 31.7222C136.322 31.1185 140.638 26.5077 141.741 21.6093C143.027 15.8946 139.873 10.1692 135.224 6.6061C130.132 2.70366 123.378 1.58337 116.979 2.30535C109.644 3.13282 102.936 6.34798 96.9167 10.2369C91.1068 13.8743 85.764 18.1318 80.9948 22.9242C76.7243 27.3595 73.106 32.6462 71.9506 38.6145C70.9006 44.0385 71.7023 50.049 75.1121 54.6438C76.9201 56.9989 79.3431 58.876 82.1473 60.0942C85.0711 61.4443 88.1899 62.4094 91.0225 63.9359C95.3055 66.244 99.4681 71.0297 98.1265 76.01C97.8389 77.0979 97.2712 78.1027 96.4735 78.9358C95.5151 79.9363 93.7864 78.6142 94.7473 77.6111C96.435 75.8493 96.3686 73.4996 95.4691 71.3962C94.3996 69.0259 92.5058 67.0675 90.0978 65.8418C87.1328 64.2477 83.8592 63.2637 80.8202 61.8116C77.9114 60.4851 75.3865 58.5174 73.4603 56.076C69.8231 51.3227 68.7351 45.1367 69.56 39.4141C70.4527 33.2214 73.8362 27.5941 78.0777 22.8784C82.6936 17.7463 88.3636 13.4022 94.1561 9.49961C100.371 5.31208 107.238 1.77182 114.837 0.491362C121.423 -0.618594 128.563 0.064765 134.322 3.44018C139.699 6.59092 143.822 12.0108 144.232 18.067C144.379 20.8226 143.743 23.5652 142.388 26.0128C141.034 28.4603 139.011 30.5243 136.527 31.9923C133.978 33.4267 131.014 34.0723 128.054 33.8381C124.889 33.6476 121.722 32.7364 118.537 32.9894C117.096 33.0716 115.723 33.5934 114.625 34.4757C113.537 35.356 112.239 33.6512 113.319 32.7781V32.778Z" fill="#2F2E41"/>
<path id="Vector_21" d="M549.116 417H0.884045C0.649995 416.999 0.425768 416.911 0.260508 416.756C0.095249 416.6 0.00244141 416.389 0.00244141 416.169C0.00244141 415.948 0.095249 415.737 0.260508 415.582C0.425768 415.426 0.649995 415.338 0.884045 415.337H549.116C549.35 415.337 549.575 415.425 549.741 415.581C549.907 415.737 550 415.948 550 416.169C550 416.389 549.907 416.601 549.741 416.756C549.575 416.912 549.35 417 549.116 417Z" fill="#3F3D56"/>
</g>
</svg>
